<svg xmlns="http://www.w3.org/2000/svg" width="1030" height="840.519" viewBox="0 0 1030 840.519">
  <g id="Grupo_74200" data-name="Grupo 74200" transform="translate(5260.838 12905)">
    <path id="Trazado_151889" data-name="Trazado 151889" d="M0,0H1030V840.519H0Z" transform="translate(-5260.838 -12905)" fill="#f4f3f3"/>
    <path id="Trazado_151890" data-name="Trazado 151890" d="M11.81-4.5A4.78,4.78,0,0,1,10.2-1.067,5.653,5.653,0,0,1,6.374.186,5.083,5.083,0,0,1,2.287-1.563,7.171,7.171,0,0,1,.8-6.364V-7.19a8.1,8.1,0,0,1,.687-3.433A5.145,5.145,0,0,1,3.447-12.9a5.5,5.5,0,0,1,2.964-.793,5.507,5.507,0,0,1,3.767,1.252,5.137,5.137,0,0,1,1.651,3.516H9.045a2.821,2.821,0,0,0-.728-1.9,2.7,2.7,0,0,0-1.906-.589,2.365,2.365,0,0,0-2.083,1,5.589,5.589,0,0,0-.71,3.094V-6.3a5.982,5.982,0,0,0,.663,3.2A2.321,2.321,0,0,0,6.374-2.087,2.748,2.748,0,0,0,8.3-2.677,2.661,2.661,0,0,0,9.027-4.5Zm1.234-.612a5.953,5.953,0,0,1,.575-2.663,4.211,4.211,0,0,1,1.656-1.809,4.831,4.831,0,0,1,2.51-.64A4.571,4.571,0,0,1,21.1-8.98,4.989,4.989,0,0,1,22.535-5.6l.019.687a5.247,5.247,0,0,1-1.29,3.706A4.482,4.482,0,0,1,17.8.186a4.5,4.5,0,0,1-3.465-1.392,5.339,5.339,0,0,1-1.294-3.785Zm2.681.19a3.752,3.752,0,0,0,.538,2.188,1.775,1.775,0,0,0,1.54.757,1.779,1.779,0,0,0,1.521-.748,4.106,4.106,0,0,0,.547-2.393,3.715,3.715,0,0,0-.547-2.174,1.779,1.779,0,0,0-1.54-.771,1.75,1.75,0,0,0-1.521.767A4.175,4.175,0,0,0,15.725-4.921Zm11.689-7.584v2.468h1.716v1.967H27.415v5.01a1.2,1.2,0,0,0,.213.8,1.072,1.072,0,0,0,.816.241,4.276,4.276,0,0,0,.789-.065V-.056a5.52,5.52,0,0,1-1.624.241,2.56,2.56,0,0,1-2.876-2.848V-8.071H23.268v-1.967h1.466v-2.468ZM33.454,0h-2.69V-10.038h2.69ZM30.606-12.636a1.32,1.32,0,0,1,.4-.993,1.516,1.516,0,0,1,1.1-.39,1.52,1.52,0,0,1,1.095.39,1.313,1.313,0,0,1,.408.993,1.316,1.316,0,0,1-.413,1,1.523,1.523,0,0,1-1.09.39,1.523,1.523,0,0,1-1.09-.39A1.316,1.316,0,0,1,30.606-12.636ZM38.742-2.162H43.65V0H35.319V-1.633l4.722-6.244H35.458v-2.162H43.5v1.58ZM51.146,0a2.977,2.977,0,0,1-.269-.9A3.244,3.244,0,0,1,48.344.186,3.564,3.564,0,0,1,45.9-.668,2.745,2.745,0,0,1,44.93-2.82,2.837,2.837,0,0,1,46.113-5.27a5.837,5.837,0,0,1,3.419-.863h1.234v-.575a1.654,1.654,0,0,0-.357-1.113,1.405,1.405,0,0,0-1.127-.417,1.6,1.6,0,0,0-1.062.325,1.1,1.1,0,0,0-.385.891H45.153a2.693,2.693,0,0,1,.538-1.614A3.557,3.557,0,0,1,47.212-9.8a5.545,5.545,0,0,1,2.208-.422,4.381,4.381,0,0,1,2.946.932,3.262,3.262,0,0,1,1.09,2.621v4.351a4.8,4.8,0,0,0,.4,2.162V0ZM48.929-1.865a2.309,2.309,0,0,0,1.095-.264,1.737,1.737,0,0,0,.742-.71V-4.564h-1q-2.013,0-2.143,1.392l-.009.158a1.073,1.073,0,0,0,.353.826A1.369,1.369,0,0,0,48.929-1.865ZM59.69-1.976A1.759,1.759,0,0,0,60.9-2.384a1.43,1.43,0,0,0,.482-1.085h2.514A3.439,3.439,0,0,1,63.336-1.6a3.673,3.673,0,0,1-1.5,1.317,4.689,4.689,0,0,1-2.1.469,4.358,4.358,0,0,1-3.4-1.368A5.415,5.415,0,0,1,55.1-4.963V-5.14a5.353,5.353,0,0,1,1.234-3.7,4.307,4.307,0,0,1,3.386-1.382,4.222,4.222,0,0,1,3.02,1.072A3.794,3.794,0,0,1,63.893-6.3H61.379A1.842,1.842,0,0,0,60.9-7.572a1.608,1.608,0,0,0-1.225-.49,1.615,1.615,0,0,0-1.415.683,3.958,3.958,0,0,0-.478,2.216v.279a4.008,4.008,0,0,0,.473,2.23A1.635,1.635,0,0,0,59.69-1.976ZM68.253,0h-2.69V-10.038h2.69ZM65.405-12.636a1.32,1.32,0,0,1,.4-.993,1.516,1.516,0,0,1,1.1-.39,1.52,1.52,0,0,1,1.095.39,1.313,1.313,0,0,1,.408.993,1.316,1.316,0,0,1-.413,1,1.523,1.523,0,0,1-1.09.39,1.523,1.523,0,0,1-1.09-.39A1.316,1.316,0,0,1,65.405-12.636Zm4.639,7.524a5.953,5.953,0,0,1,.575-2.663,4.211,4.211,0,0,1,1.656-1.809,4.831,4.831,0,0,1,2.51-.64A4.571,4.571,0,0,1,78.1-8.98,4.989,4.989,0,0,1,79.535-5.6l.019.687a5.247,5.247,0,0,1-1.29,3.706A4.482,4.482,0,0,1,74.8.186a4.5,4.5,0,0,1-3.465-1.392,5.339,5.339,0,0,1-1.294-3.785Zm2.681.19a3.752,3.752,0,0,0,.538,2.188,1.775,1.775,0,0,0,1.54.757,1.779,1.779,0,0,0,1.521-.748,4.106,4.106,0,0,0,.547-2.393,3.715,3.715,0,0,0-.547-2.174,1.779,1.779,0,0,0-1.54-.771,1.75,1.75,0,0,0-1.521.767A4.175,4.175,0,0,0,72.725-4.921Zm2.588-9.329h2.922l-2.57,2.876h-2.18Zm8.359,4.212.083,1.16a3.5,3.5,0,0,1,2.885-1.345,2.913,2.913,0,0,1,2.375.937,4.372,4.372,0,0,1,.8,2.8V0H87.133V-6.435a1.746,1.746,0,0,0-.371-1.241,1.659,1.659,0,0,0-1.234-.386,1.844,1.844,0,0,0-1.7.967V0H81.149V-10.038Z" transform="translate(-4448.853 -12810.846)" fill="#12263f"/>
    <path id="Trazado_151891" data-name="Trazado 151891" d="M6.645-4.4H2.468V0H1.155V-9.953H7.321V-8.88H2.468v3.411H6.645ZM11.621.137A3.232,3.232,0,0,1,9.174-.851,3.666,3.666,0,0,1,8.23-3.493v-.232a4.438,4.438,0,0,1,.42-1.965A3.28,3.28,0,0,1,9.827-7.044a2.956,2.956,0,0,1,1.637-.489,2.77,2.77,0,0,1,2.242.95,4.114,4.114,0,0,1,.8,2.721v.526H9.5a2.629,2.629,0,0,0,.639,1.767A2.009,2.009,0,0,0,11.689-.9a2.2,2.2,0,0,0,1.135-.273,2.851,2.851,0,0,0,.813-.725l.772.6A3.106,3.106,0,0,1,11.621.137Zm-.157-6.631a1.687,1.687,0,0,0-1.285.557,2.708,2.708,0,0,0-.643,1.562h3.705v-.1a2.409,2.409,0,0,0-.52-1.494A1.588,1.588,0,0,0,11.464-6.494ZM18.936-.9a1.822,1.822,0,0,0,1.183-.41,1.443,1.443,0,0,0,.561-1.025h1.2a2.293,2.293,0,0,1-.437,1.21,2.881,2.881,0,0,1-1.077.916,3.107,3.107,0,0,1-1.425.342,3.047,3.047,0,0,1-2.4-1.008,4.016,4.016,0,0,1-.892-2.758v-.212a4.453,4.453,0,0,1,.4-1.921,3.02,3.02,0,0,1,1.138-1.306,3.233,3.233,0,0,1,1.753-.465A2.966,2.966,0,0,1,21-6.788a2.663,2.663,0,0,1,.878,1.935h-1.2a1.743,1.743,0,0,0-.543-1.179,1.691,1.691,0,0,0-1.207-.461,1.77,1.77,0,0,0-1.494.694,3.259,3.259,0,0,0-.53,2.006v.239a3.194,3.194,0,0,0,.526,1.969A1.779,1.779,0,0,0,18.936-.9ZM24.562-6.5a2.689,2.689,0,0,1,2.188-1.032q2.345,0,2.365,2.646V0H27.85V-4.895a1.7,1.7,0,0,0-.366-1.183,1.466,1.466,0,0,0-1.118-.383,1.825,1.825,0,0,0-1.08.328,2.228,2.228,0,0,0-.725.861V0H23.3V-10.5h1.265ZM35.574,0A2.657,2.657,0,0,1,35.4-.779a2.822,2.822,0,0,1-2.105.916A2.611,2.611,0,0,1,31.5-.482a2,2,0,0,1-.7-1.569,2.091,2.091,0,0,1,.878-1.794,4.142,4.142,0,0,1,2.471-.639h1.23v-.581a1.42,1.42,0,0,0-.4-1.056,1.593,1.593,0,0,0-1.169-.393,1.844,1.844,0,0,0-1.135.342,1.007,1.007,0,0,0-.458.827H30.946a1.745,1.745,0,0,1,.393-1.07,2.683,2.683,0,0,1,1.066-.817,3.588,3.588,0,0,1,1.48-.3,2.924,2.924,0,0,1,2,.639,2.306,2.306,0,0,1,.752,1.76v3.4a4.162,4.162,0,0,0,.26,1.62V0Zm-2.1-.964A2.223,2.223,0,0,0,34.6-1.271a1.861,1.861,0,0,0,.772-.8V-3.589h-.991q-2.324,0-2.324,1.36a1.151,1.151,0,0,0,.4.93A1.524,1.524,0,0,0,33.476-.964Z" transform="translate(-4532.199 -12768.97)" fill="#12263f"/>
    <path id="Trazado_151892" data-name="Trazado 151892" d="M8.477-3.158A3.662,3.662,0,0,1,7.311-.721,3.82,3.82,0,0,1,4.7.137,3.507,3.507,0,0,1,1.876-1.128,5.088,5.088,0,0,1,.813-4.512v-.957a5.671,5.671,0,0,1,.5-2.44,3.7,3.7,0,0,1,1.4-1.617,3.911,3.911,0,0,1,2.105-.564A3.6,3.6,0,0,1,7.362-9.2,3.706,3.706,0,0,1,8.477-6.754H7.157a2.86,2.86,0,0,0-.742-1.728,2.244,2.244,0,0,0-1.6-.535,2.348,2.348,0,0,0-1.972.93,4.271,4.271,0,0,0-.714,2.648v.965A4.391,4.391,0,0,0,2.81-1.894,2.187,2.187,0,0,0,4.7-.937a2.526,2.526,0,0,0,1.678-.5,2.75,2.75,0,0,0,.776-1.726Zm1.258-.608a4.369,4.369,0,0,1,.427-1.955,3.187,3.187,0,0,1,1.189-1.34,3.238,3.238,0,0,1,1.74-.472,3.119,3.119,0,0,1,2.444,1.046,4.024,4.024,0,0,1,.933,2.782v.089a4.407,4.407,0,0,1-.414,1.938A3.14,3.14,0,0,1,14.872-.342,3.275,3.275,0,0,1,13.1.137,3.111,3.111,0,0,1,10.667-.909a4,4,0,0,1-.933-2.769Zm1.271.15a3.164,3.164,0,0,0,.571,1.976A1.827,1.827,0,0,0,13.1-.9a1.816,1.816,0,0,0,1.531-.755A3.46,3.46,0,0,0,15.2-3.767a3.159,3.159,0,0,0-.578-1.972,1.836,1.836,0,0,0-1.535-.755,1.816,1.816,0,0,0-1.511.745A3.434,3.434,0,0,0,11.006-3.616ZM19.77-9.187V-7.4H21.15v.978H19.77v4.593a1.027,1.027,0,0,0,.185.667.777.777,0,0,0,.629.222,3.062,3.062,0,0,0,.6-.082V0a3.688,3.688,0,0,1-.971.136,1.575,1.575,0,0,1-1.278-.513A2.2,2.2,0,0,1,18.5-1.832V-6.419H17.158V-7.4H18.5V-9.187ZM24,0H22.736V-7.4H24ZM22.634-9.358a.755.755,0,0,1,.188-.52.706.706,0,0,1,.557-.212.717.717,0,0,1,.561.212.747.747,0,0,1,.191.52.722.722,0,0,1-.191.513.73.73,0,0,1-.561.205.718.718,0,0,1-.557-.205A.73.73,0,0,1,22.634-9.358Zm4.58,8.326h4.327V0H25.669V-.93L29.75-6.351H25.73V-7.4h5.605v.9ZM37.529,0a2.657,2.657,0,0,1-.178-.779,2.822,2.822,0,0,1-2.105.916,2.611,2.611,0,0,1-1.794-.619,2,2,0,0,1-.7-1.569,2.091,2.091,0,0,1,.878-1.794A4.142,4.142,0,0,1,36.1-4.484h1.23v-.581a1.42,1.42,0,0,0-.4-1.056,1.593,1.593,0,0,0-1.169-.393,1.844,1.844,0,0,0-1.135.342,1.007,1.007,0,0,0-.458.827H32.9a1.745,1.745,0,0,1,.393-1.07,2.683,2.683,0,0,1,1.066-.817,3.588,3.588,0,0,1,1.48-.3,2.924,2.924,0,0,1,2,.639,2.306,2.306,0,0,1,.752,1.76v3.4a4.162,4.162,0,0,0,.26,1.62V0Zm-2.1-.964a2.223,2.223,0,0,0,1.128-.308,1.861,1.861,0,0,0,.772-.8V-3.589H36.34q-2.324,0-2.324,1.36a1.151,1.151,0,0,0,.4.93A1.524,1.524,0,0,0,35.431-.964ZM43.545-.9a1.822,1.822,0,0,0,1.183-.41,1.443,1.443,0,0,0,.561-1.025h1.2a2.293,2.293,0,0,1-.437,1.21,2.881,2.881,0,0,1-1.077.916,3.107,3.107,0,0,1-1.425.342,3.047,3.047,0,0,1-2.4-1.008A4.016,4.016,0,0,1,40.25-3.63v-.212a4.453,4.453,0,0,1,.4-1.921,3.02,3.02,0,0,1,1.138-1.306,3.233,3.233,0,0,1,1.753-.465,2.966,2.966,0,0,1,2.068.745,2.663,2.663,0,0,1,.878,1.935h-1.2a1.743,1.743,0,0,0-.543-1.179,1.691,1.691,0,0,0-1.207-.461,1.77,1.77,0,0,0-1.494.694,3.259,3.259,0,0,0-.53,2.006v.239a3.194,3.194,0,0,0,.526,1.969A1.779,1.779,0,0,0,43.545-.9ZM49.28,0H48.016V-7.4H49.28ZM47.913-9.358a.755.755,0,0,1,.188-.52.706.706,0,0,1,.557-.212.717.717,0,0,1,.561.212.747.747,0,0,1,.191.52.722.722,0,0,1-.191.513.73.73,0,0,1-.561.205.718.718,0,0,1-.557-.205A.73.73,0,0,1,47.913-9.358Zm3.056,5.592A4.369,4.369,0,0,1,51.4-5.722a3.187,3.187,0,0,1,1.189-1.34,3.238,3.238,0,0,1,1.74-.472,3.119,3.119,0,0,1,2.444,1.046A4.024,4.024,0,0,1,57.7-3.705v.089a4.407,4.407,0,0,1-.414,1.938A3.14,3.14,0,0,1,56.106-.342a3.275,3.275,0,0,1-1.767.479A3.111,3.111,0,0,1,51.9-.909a4,4,0,0,1-.933-2.769Zm1.271.15a3.164,3.164,0,0,0,.571,1.976A1.827,1.827,0,0,0,54.339-.9a1.816,1.816,0,0,0,1.531-.755,3.46,3.46,0,0,0,.567-2.116,3.159,3.159,0,0,0-.578-1.972,1.836,1.836,0,0,0-1.535-.755,1.816,1.816,0,0,0-1.511.745A3.434,3.434,0,0,0,52.24-3.616Zm2.659-6.87h1.531L54.6-8.477l-1.019,0ZM60.484-7.4l.041.93A2.7,2.7,0,0,1,62.74-7.533q2.345,0,2.365,2.646V0H63.841V-4.895a1.7,1.7,0,0,0-.366-1.183,1.466,1.466,0,0,0-1.118-.383,1.825,1.825,0,0,0-1.08.328,2.228,2.228,0,0,0-.725.861V0H59.288V-7.4ZM78.326,0H77.007L72-7.67V0H70.677V-9.953H72l5.024,7.7v-7.7h1.306Zm1.8-3.767a4.369,4.369,0,0,1,.427-1.955,3.187,3.187,0,0,1,1.189-1.34,3.238,3.238,0,0,1,1.74-.472,3.119,3.119,0,0,1,2.444,1.046,4.024,4.024,0,0,1,.933,2.782v.089a4.407,4.407,0,0,1-.414,1.938A3.14,3.14,0,0,1,85.261-.342a3.275,3.275,0,0,1-1.767.479A3.111,3.111,0,0,1,81.057-.909a4,4,0,0,1-.933-2.769Zm1.271.15a3.164,3.164,0,0,0,.571,1.976A1.827,1.827,0,0,0,83.494-.9a1.816,1.816,0,0,0,1.531-.755,3.46,3.46,0,0,0,.567-2.116,3.159,3.159,0,0,0-.578-1.972,1.836,1.836,0,0,0-1.535-.755,1.816,1.816,0,0,0-1.511.745A3.434,3.434,0,0,0,81.4-3.616ZM88.471-.663a.792.792,0,0,1,.195-.547.742.742,0,0,1,.584-.219.765.765,0,0,1,.591.219.776.776,0,0,1,.2.547.734.734,0,0,1-.2.526.778.778,0,0,1-.591.212.755.755,0,0,1-.584-.212A.748.748,0,0,1,88.471-.663Z" transform="translate(-4532.199 -12749.839)" fill="#12263f"/>
    <path id="Trazado_151893" data-name="Trazado 151893" d="M4.45-1.743l2.844-8.21H8.729L5.038,0H3.876L.191-9.953H1.62ZM14.116,0a2.657,2.657,0,0,1-.178-.779,2.822,2.822,0,0,1-2.105.916,2.611,2.611,0,0,1-1.794-.619,2,2,0,0,1-.7-1.569,2.091,2.091,0,0,1,.878-1.794,4.142,4.142,0,0,1,2.471-.639h1.23v-.581a1.42,1.42,0,0,0-.4-1.056,1.593,1.593,0,0,0-1.169-.393,1.844,1.844,0,0,0-1.135.342,1.007,1.007,0,0,0-.458.827H9.488a1.745,1.745,0,0,1,.393-1.07,2.683,2.683,0,0,1,1.066-.817,3.588,3.588,0,0,1,1.48-.3,2.924,2.924,0,0,1,2,.639,2.306,2.306,0,0,1,.752,1.76v3.4a4.162,4.162,0,0,0,.26,1.62V0Zm-2.1-.964a2.223,2.223,0,0,0,1.128-.308,1.861,1.861,0,0,0,.772-.8V-3.589h-.991q-2.324,0-2.324,1.36a1.151,1.151,0,0,0,.4.93A1.524,1.524,0,0,0,12.018-.964Zm1.169-9.522h1.531l-1.832,2.01-1.019,0ZM18.539,0H17.274V-10.5h1.265Zm3.4,0H20.672V-7.4h1.265ZM20.569-9.358a.755.755,0,0,1,.188-.52.706.706,0,0,1,.557-.212.717.717,0,0,1,.561.212.747.747,0,0,1,.191.52.722.722,0,0,1-.191.513.73.73,0,0,1-.561.205.718.718,0,0,1-.557-.205A.73.73,0,0,1,20.569-9.358Zm3.083,5.6A4.333,4.333,0,0,1,24.459-6.5a2.551,2.551,0,0,1,2.112-1.036,2.565,2.565,0,0,1,2.058.889V-10.5h1.265V0H28.731L28.67-.793a2.575,2.575,0,0,1-2.112.93,2.526,2.526,0,0,1-2.1-1.053,4.382,4.382,0,0,1-.81-2.748Zm1.265.144a3.281,3.281,0,0,0,.52,1.969,1.68,1.68,0,0,0,1.436.711,1.845,1.845,0,0,0,1.757-1.08v-3.4A1.859,1.859,0,0,0,26.886-6.46a1.687,1.687,0,0,0-1.449.718A3.612,3.612,0,0,0,24.917-3.616Zm6.6-.15a4.369,4.369,0,0,1,.427-1.955,3.187,3.187,0,0,1,1.189-1.34,3.238,3.238,0,0,1,1.74-.472,3.119,3.119,0,0,1,2.444,1.046,4.024,4.024,0,0,1,.933,2.782v.089a4.407,4.407,0,0,1-.414,1.938A3.14,3.14,0,0,1,36.658-.342a3.275,3.275,0,0,1-1.767.479A3.111,3.111,0,0,1,32.454-.909a4,4,0,0,1-.933-2.769Zm1.271.15a3.164,3.164,0,0,0,.571,1.976A1.827,1.827,0,0,0,34.891-.9a1.816,1.816,0,0,0,1.531-.755,3.46,3.46,0,0,0,.567-2.116,3.159,3.159,0,0,0-.578-1.972,1.836,1.836,0,0,0-1.535-.755,1.816,1.816,0,0,0-1.511.745A3.434,3.434,0,0,0,32.792-3.616ZM44.57-6.5a2.689,2.689,0,0,1,2.188-1.032q2.345,0,2.365,2.646V0H47.858V-4.895a1.7,1.7,0,0,0-.366-1.183,1.466,1.466,0,0,0-1.118-.383,1.825,1.825,0,0,0-1.08.328,2.228,2.228,0,0,0-.725.861V0H43.306V-10.5H44.57ZM55.583,0a2.657,2.657,0,0,1-.178-.779A2.822,2.822,0,0,1,53.3.137a2.611,2.611,0,0,1-1.794-.619,2,2,0,0,1-.7-1.569,2.091,2.091,0,0,1,.878-1.794,4.142,4.142,0,0,1,2.471-.639h1.23v-.581a1.42,1.42,0,0,0-.4-1.056,1.593,1.593,0,0,0-1.169-.393,1.844,1.844,0,0,0-1.135.342,1.007,1.007,0,0,0-.458.827H50.955a1.745,1.745,0,0,1,.393-1.07,2.683,2.683,0,0,1,1.066-.817,3.588,3.588,0,0,1,1.48-.3,2.924,2.924,0,0,1,2,.639,2.306,2.306,0,0,1,.752,1.76v3.4a4.162,4.162,0,0,0,.26,1.62V0Zm-2.1-.964a2.223,2.223,0,0,0,1.128-.308,1.861,1.861,0,0,0,.772-.8V-3.589h-.991q-2.324,0-2.324,1.36a1.151,1.151,0,0,0,.4.93A1.524,1.524,0,0,0,53.484-.964Zm9.454-1a.931.931,0,0,0-.386-.8,3.718,3.718,0,0,0-1.347-.489,6.367,6.367,0,0,1-1.524-.492,2.169,2.169,0,0,1-.834-.684,1.635,1.635,0,0,1-.27-.943A1.919,1.919,0,0,1,59.346-6.9a3,3,0,0,1,1.965-.629,3.091,3.091,0,0,1,2.041.649,2.063,2.063,0,0,1,.783,1.661H62.863a1.142,1.142,0,0,0-.441-.9,1.652,1.652,0,0,0-1.111-.376,1.729,1.729,0,0,0-1.08.3.947.947,0,0,0-.39.786.767.767,0,0,0,.362.69,4.458,4.458,0,0,0,1.309.444,6.821,6.821,0,0,1,1.535.506,2.239,2.239,0,0,1,.872.708A1.74,1.74,0,0,1,64.2-2.051,1.893,1.893,0,0,1,63.41-.461a3.326,3.326,0,0,1-2.058.6A3.725,3.725,0,0,1,59.78-.178a2.557,2.557,0,0,1-1.07-.878,2.117,2.117,0,0,1-.386-1.22h1.265A1.309,1.309,0,0,0,60.1-1.268,1.976,1.976,0,0,0,61.353-.9,2.039,2.039,0,0,0,62.5-1.186.893.893,0,0,0,62.938-1.962Zm4.628-7.226V-7.4h1.381v.978H67.566v4.593a1.027,1.027,0,0,0,.185.667.777.777,0,0,0,.629.222,3.062,3.062,0,0,0,.6-.082V0a3.688,3.688,0,0,1-.971.136,1.575,1.575,0,0,1-1.278-.513A2.2,2.2,0,0,1,66.3-1.832V-6.419H64.955V-7.4H66.3V-9.187ZM74.99,0a2.657,2.657,0,0,1-.178-.779,2.822,2.822,0,0,1-2.105.916,2.611,2.611,0,0,1-1.794-.619,2,2,0,0,1-.7-1.569,2.091,2.091,0,0,1,.878-1.794,4.141,4.141,0,0,1,2.471-.639h1.23v-.581a1.42,1.42,0,0,0-.4-1.056,1.593,1.593,0,0,0-1.169-.393,1.844,1.844,0,0,0-1.135.342,1.007,1.007,0,0,0-.458.827H70.362a1.745,1.745,0,0,1,.393-1.07,2.683,2.683,0,0,1,1.066-.817,3.588,3.588,0,0,1,1.48-.3,2.924,2.924,0,0,1,2,.639,2.306,2.306,0,0,1,.752,1.76v3.4a4.162,4.162,0,0,0,.26,1.62V0Zm-2.1-.964a2.223,2.223,0,0,0,1.128-.308,1.861,1.861,0,0,0,.772-.8V-3.589H73.8q-2.324,0-2.324,1.36a1.151,1.151,0,0,0,.4.93A1.524,1.524,0,0,0,72.892-.964Z" transform="translate(-4532.199 -12730.404)" fill="#12263f"/>
    <path id="Trazado_151894" data-name="Trazado 151894" d="M11.188-4.263A4.528,4.528,0,0,1,9.664-1.011,5.355,5.355,0,0,1,6.038.176,4.816,4.816,0,0,1,2.167-1.481,6.793,6.793,0,0,1,.756-6.029v-.782a7.671,7.671,0,0,1,.65-3.252,4.874,4.874,0,0,1,1.859-2.158,5.207,5.207,0,0,1,2.808-.751,5.217,5.217,0,0,1,3.568,1.187,4.866,4.866,0,0,1,1.564,3.331H8.569a2.673,2.673,0,0,0-.69-1.8,2.555,2.555,0,0,0-1.806-.558A2.24,2.24,0,0,0,4.1-9.866a5.3,5.3,0,0,0-.672,2.931v.967a5.667,5.667,0,0,0,.628,3.032,2.2,2.2,0,0,0,1.982.958,2.6,2.6,0,0,0,1.824-.558,2.521,2.521,0,0,0,.69-1.727ZM18.264,0a2.821,2.821,0,0,1-.255-.853,3.073,3.073,0,0,1-2.4,1.028,3.376,3.376,0,0,1-2.316-.809,2.6,2.6,0,0,1-.918-2.039A2.687,2.687,0,0,1,13.5-4.992a5.529,5.529,0,0,1,3.239-.817H17.9v-.545a1.567,1.567,0,0,0-.338-1.055A1.331,1.331,0,0,0,16.5-7.8a1.513,1.513,0,0,0-1.006.308,1.045,1.045,0,0,0-.365.844h-2.54a2.551,2.551,0,0,1,.51-1.529,3.37,3.37,0,0,1,1.441-1.1,5.253,5.253,0,0,1,2.092-.4,4.15,4.15,0,0,1,2.791.883,3.09,3.09,0,0,1,1.033,2.483V-2.2A4.546,4.546,0,0,0,20.83-.149V0Zm-2.1-1.767a2.188,2.188,0,0,0,1.037-.25,1.645,1.645,0,0,0,.7-.672V-4.324h-.949q-1.907,0-2.03,1.318l-.009.149a1.017,1.017,0,0,0,.334.782A1.3,1.3,0,0,0,16.163-1.767ZM24.741-9.51l.079,1.1a3.32,3.32,0,0,1,2.733-1.274A2.759,2.759,0,0,1,29.8-8.8a4.142,4.142,0,0,1,.756,2.654V0H28.02V-6.1a1.654,1.654,0,0,0-.352-1.176A1.572,1.572,0,0,0,26.5-7.638a1.747,1.747,0,0,0-1.608.916V0h-2.54V-9.51Zm10.784-2.338V-9.51h1.626v1.863H35.525V-2.9a1.133,1.133,0,0,0,.2.756,1.015,1.015,0,0,0,.773.229,4.051,4.051,0,0,0,.747-.062V-.053A5.229,5.229,0,0,1,35.71.176a2.425,2.425,0,0,1-2.725-2.7V-7.646H31.6V-9.51h1.389v-2.338ZM41.247,0H38.7V-9.51h2.549Zm-2.7-11.971a1.251,1.251,0,0,1,.382-.94,1.436,1.436,0,0,1,1.042-.369,1.44,1.44,0,0,1,1.037.369,1.244,1.244,0,0,1,.387.94,1.247,1.247,0,0,1-.391.949,1.443,1.443,0,0,1-1.033.369,1.443,1.443,0,0,1-1.033-.369A1.247,1.247,0,0,1,38.549-11.971Zm4.395,7.146a5.731,5.731,0,0,1,1-3.542A3.237,3.237,0,0,1,46.67-9.686a2.913,2.913,0,0,1,2.294,1.037V-13.5h2.549V0H49.219L49.1-1.011A2.989,2.989,0,0,1,46.652.176a3.228,3.228,0,0,1-2.694-1.323A5.916,5.916,0,0,1,42.943-4.825Zm2.54.181a3.775,3.775,0,0,0,.466,2.057,1.516,1.516,0,0,0,1.354.715,1.7,1.7,0,0,0,1.661-1V-6.64a1.675,1.675,0,0,0-1.644-1Q45.483-7.638,45.483-4.644ZM58.992,0a2.821,2.821,0,0,1-.255-.853,3.073,3.073,0,0,1-2.4,1.028,3.376,3.376,0,0,1-2.316-.809A2.6,2.6,0,0,1,53.1-2.672a2.687,2.687,0,0,1,1.121-2.32,5.529,5.529,0,0,1,3.239-.817h1.169v-.545a1.567,1.567,0,0,0-.338-1.055,1.331,1.331,0,0,0-1.068-.4,1.513,1.513,0,0,0-1.006.308,1.045,1.045,0,0,0-.365.844h-2.54a2.551,2.551,0,0,1,.51-1.529,3.37,3.37,0,0,1,1.441-1.1,5.253,5.253,0,0,1,2.092-.4,4.15,4.15,0,0,1,2.791.883,3.09,3.09,0,0,1,1.033,2.483V-2.2a4.546,4.546,0,0,0,.378,2.048V0Zm-2.1-1.767a2.188,2.188,0,0,0,1.037-.25,1.645,1.645,0,0,0,.7-.672V-4.324h-.949q-1.907,0-2.03,1.318l-.009.149a1.017,1.017,0,0,0,.334.782A1.3,1.3,0,0,0,56.892-1.767Zm5.845-3.059a5.731,5.731,0,0,1,1-3.542,3.237,3.237,0,0,1,2.729-1.318,2.913,2.913,0,0,1,2.294,1.037V-13.5h2.549V0H69.012l-.123-1.011A2.989,2.989,0,0,1,66.445.176a3.228,3.228,0,0,1-2.694-1.323A5.916,5.916,0,0,1,62.736-4.825Zm2.54.181a3.775,3.775,0,0,0,.466,2.057,1.516,1.516,0,0,0,1.354.715,1.7,1.7,0,0,0,1.661-1V-6.64a1.675,1.675,0,0,0-1.644-1Q65.276-7.638,65.276-4.644Z" transform="translate(-5205.583 -12493.537)" fill="#12263f"/>
    <path id="Trazado_151895" data-name="Trazado 151895" d="M11.549,0H8.912L3.779-8.42V0H1.143V-12.8H3.779L8.921-4.359V-12.8h2.628Zm1.74-4.843a5.64,5.64,0,0,1,.545-2.522A3.989,3.989,0,0,1,15.4-9.079a4.577,4.577,0,0,1,2.377-.606,4.33,4.33,0,0,1,3.142,1.178,4.727,4.727,0,0,1,1.358,3.2l.018.65a4.97,4.97,0,0,1-1.222,3.511A4.247,4.247,0,0,1,17.8.176a4.268,4.268,0,0,1-3.283-1.318,5.058,5.058,0,0,1-1.226-3.586Zm2.54.18a3.555,3.555,0,0,0,.51,2.073,1.682,1.682,0,0,0,1.459.717,1.686,1.686,0,0,0,1.441-.709,3.89,3.89,0,0,0,.519-2.267,3.519,3.519,0,0,0-.519-2.06,1.686,1.686,0,0,0-1.459-.731,1.658,1.658,0,0,0-1.441.726A3.955,3.955,0,0,0,15.829-4.662ZM26.244-9.51l.079,1.063a3.342,3.342,0,0,1,2.733-1.239,2.536,2.536,0,0,1,2.522,1.45,3.265,3.265,0,0,1,2.856-1.45,2.836,2.836,0,0,1,2.3.9,4.141,4.141,0,0,1,.756,2.711V0H34.945V-6.078a1.818,1.818,0,0,0-.316-1.185,1.4,1.4,0,0,0-1.116-.374,1.585,1.585,0,0,0-1.582,1.092L31.939,0H29.4V-6.07a1.8,1.8,0,0,0-.325-1.2,1.414,1.414,0,0,0-1.107-.37,1.645,1.645,0,0,0-1.564.9V0h-2.54V-9.51ZM48.015-4.667A5.758,5.758,0,0,1,47.039-1.1,3.231,3.231,0,0,1,44.314.176a2.969,2.969,0,0,1-2.47-1.187L41.73,0H39.445V-13.5h2.54v4.843A2.893,2.893,0,0,1,44.3-9.686a3.258,3.258,0,0,1,2.729,1.279,5.767,5.767,0,0,1,.989,3.6Zm-2.54-.194a3.8,3.8,0,0,0-.457-2.111,1.544,1.544,0,0,0-1.362-.666,1.675,1.675,0,0,0-1.67,1v3.764a1.7,1.7,0,0,0,1.688,1A1.569,1.569,0,0,0,45.29-3.089,6.294,6.294,0,0,0,45.475-4.861Zm9.448-2.267a6.9,6.9,0,0,0-.914-.07,1.86,1.86,0,0,0-1.89.976V0h-2.54V-9.51h2.4l.07,1.134a2.354,2.354,0,0,1,2.118-1.31,2.662,2.662,0,0,1,.791.114Zm5.432,7.3a4.668,4.668,0,0,1-3.406-1.283,4.561,4.561,0,0,1-1.314-3.419v-.246a5.745,5.745,0,0,1,.554-2.562,4.064,4.064,0,0,1,1.569-1.74,4.4,4.4,0,0,1,2.316-.611,3.947,3.947,0,0,1,3.072,1.23,5,5,0,0,1,1.121,3.489v1.037H58.21a2.36,2.36,0,0,0,.743,1.494,2.245,2.245,0,0,0,1.569.563,2.742,2.742,0,0,0,2.294-1.063l1.248,1.4A3.813,3.813,0,0,1,62.517-.277,5.075,5.075,0,0,1,60.354.176Zm-.29-7.813a1.587,1.587,0,0,0-1.226.512,2.651,2.651,0,0,0-.6,1.466H61.77v-.2a1.891,1.891,0,0,0-.457-1.311A1.638,1.638,0,0,0,60.064-7.638Zm9.729,2.813a5.731,5.731,0,0,1,1-3.542,3.237,3.237,0,0,1,2.729-1.318,2.913,2.913,0,0,1,2.294,1.037V-13.5h2.549V0H76.069l-.123-1.011A2.989,2.989,0,0,1,73.5.176a3.228,3.228,0,0,1-2.694-1.323A5.916,5.916,0,0,1,69.794-4.825Zm2.54.181A3.775,3.775,0,0,0,72.8-2.587a1.516,1.516,0,0,0,1.354.715,1.7,1.7,0,0,0,1.661-1V-6.64a1.675,1.675,0,0,0-1.644-1Q72.334-7.638,72.334-4.644ZM84.709.176A4.668,4.668,0,0,1,81.3-1.107a4.561,4.561,0,0,1-1.314-3.419v-.246a5.745,5.745,0,0,1,.554-2.562,4.064,4.064,0,0,1,1.569-1.74,4.4,4.4,0,0,1,2.316-.611A3.947,3.947,0,0,1,87.5-8.455,5,5,0,0,1,88.62-4.966v1.037H82.564a2.36,2.36,0,0,0,.743,1.494,2.245,2.245,0,0,0,1.569.563A2.742,2.742,0,0,0,87.17-2.936l1.248,1.4A3.813,3.813,0,0,1,86.871-.277,5.075,5.075,0,0,1,84.709.176Zm-.29-7.813a1.587,1.587,0,0,0-1.226.512,2.651,2.651,0,0,0-.6,1.466h3.533v-.2a1.891,1.891,0,0,0-.457-1.311A1.638,1.638,0,0,0,84.419-7.638ZM92.742,0H90.193V-13.5h2.549Zm15.135-4.667a5.7,5.7,0,0,1-1,3.52A3.2,3.2,0,0,1,104.186.176a2.963,2.963,0,0,1-2.329-1V3.656h-2.54V-9.51h2.355l.088.932a2.985,2.985,0,0,1,2.408-1.107,3.22,3.22,0,0,1,2.733,1.3,5.858,5.858,0,0,1,.976,3.586Zm-2.54-.194a3.763,3.763,0,0,0-.47-2.054,1.53,1.53,0,0,0-1.367-.723,1.662,1.662,0,0,0-1.644.917v3.906a1.691,1.691,0,0,0,1.661.943Q105.337-1.872,105.337-4.861Zm9.457-2.267a6.9,6.9,0,0,0-.914-.07,1.86,1.86,0,0,0-1.89.976V0h-2.54V-9.51h2.4l.07,1.134a2.354,2.354,0,0,1,2.118-1.31,2.662,2.662,0,0,1,.791.114Zm.51,2.285a5.64,5.64,0,0,1,.545-2.522,3.989,3.989,0,0,1,1.569-1.714,4.577,4.577,0,0,1,2.377-.606,4.33,4.33,0,0,1,3.142,1.178,4.727,4.727,0,0,1,1.358,3.2l.018.65a4.97,4.97,0,0,1-1.222,3.511A4.247,4.247,0,0,1,119.813.176a4.268,4.268,0,0,1-3.283-1.318A5.058,5.058,0,0,1,115.3-4.729Zm2.54.18a3.555,3.555,0,0,0,.51,2.073,1.682,1.682,0,0,0,1.459.717,1.686,1.686,0,0,0,1.441-.709,3.89,3.89,0,0,0,.519-2.267,3.519,3.519,0,0,0-.519-2.06,1.686,1.686,0,0,0-1.459-.731,1.658,1.658,0,0,0-1.441.726A3.955,3.955,0,0,0,117.844-4.662Zm7.638-.163a5.731,5.731,0,0,1,1-3.542,3.237,3.237,0,0,1,2.729-1.318A2.913,2.913,0,0,1,131.5-8.648V-13.5h2.549V0h-2.294l-.123-1.011A2.989,2.989,0,0,1,129.19.176,3.228,3.228,0,0,1,126.5-1.147,5.916,5.916,0,0,1,125.481-4.825Zm2.54.181a3.775,3.775,0,0,0,.466,2.057,1.516,1.516,0,0,0,1.354.715,1.7,1.7,0,0,0,1.661-1V-6.64a1.675,1.675,0,0,0-1.644-1Q128.021-7.638,128.021-4.644ZM141.715-.967a3.185,3.185,0,0,1-2.6,1.143A3,3,0,0,1,136.78-.7a3.752,3.752,0,0,1-.822-2.575V-9.51h2.54v6.151q0,1.487,1.354,1.487a1.834,1.834,0,0,0,1.775-.9V-9.51h2.549V0h-2.391Zm8.332-.905a1.666,1.666,0,0,0,1.143-.387,1.355,1.355,0,0,0,.457-1.028h2.382a3.258,3.258,0,0,1-.527,1.771,3.48,3.48,0,0,1-1.419,1.248,4.442,4.442,0,0,1-1.991.444,4.129,4.129,0,0,1-3.217-1.3A5.13,5.13,0,0,1,145.7-4.7v-.167a5.071,5.071,0,0,1,1.169-3.507,4.08,4.08,0,0,1,3.208-1.31,4,4,0,0,1,2.861,1.015,3.594,3.594,0,0,1,1.094,2.7h-2.382a1.745,1.745,0,0,0-.457-1.206,1.524,1.524,0,0,0-1.16-.464,1.53,1.53,0,0,0-1.34.647,3.749,3.749,0,0,0-.453,2.1v.264a3.8,3.8,0,0,0,.448,2.113A1.549,1.549,0,0,0,150.047-1.872Zm8.473-9.976V-9.51h1.626v1.863H158.52V-2.9a1.133,1.133,0,0,0,.2.756,1.015,1.015,0,0,0,.773.229,4.051,4.051,0,0,0,.747-.062V-.053A5.229,5.229,0,0,1,158.7.176a2.425,2.425,0,0,1-2.725-2.7V-7.646h-1.389V-9.51h1.389v-2.338Zm2.382,7a5.64,5.64,0,0,1,.545-2.522,3.989,3.989,0,0,1,1.569-1.714,4.577,4.577,0,0,1,2.377-.606,4.33,4.33,0,0,1,3.142,1.178,4.727,4.727,0,0,1,1.358,3.2l.018.65a4.97,4.97,0,0,1-1.222,3.511A4.247,4.247,0,0,1,165.41.176a4.268,4.268,0,0,1-3.283-1.318A5.058,5.058,0,0,1,160.9-4.729Zm2.54.18a3.555,3.555,0,0,0,.51,2.073,1.682,1.682,0,0,0,1.459.717,1.686,1.686,0,0,0,1.441-.709,3.89,3.89,0,0,0,.519-2.267,3.519,3.519,0,0,0-.519-2.06,1.686,1.686,0,0,0-1.459-.731,1.658,1.658,0,0,0-1.441.726A3.955,3.955,0,0,0,163.441-4.662Z" transform="translate(-5100.097 -12493.536)" fill="#12263f"/>
    <path id="Trazado_151896" data-name="Trazado 151896" d="M1.143,0V-12.8H5.08a5.98,5.98,0,0,1,3.019.76,5.3,5.3,0,0,1,2.079,2.162,6.669,6.669,0,0,1,.747,3.186V-6.1a6.688,6.688,0,0,1-.734,3.173A5.256,5.256,0,0,1,8.121-.773,6.025,6.025,0,0,1,5.106,0ZM3.779-10.661v8.543H5.054A2.863,2.863,0,0,0,7.418-3.129a4.567,4.567,0,0,0,.835-2.892V-6.7a4.64,4.64,0,0,0-.809-2.958A2.854,2.854,0,0,0,5.08-10.661ZM17.051.176a4.668,4.668,0,0,1-3.406-1.283,4.561,4.561,0,0,1-1.314-3.419v-.246a5.745,5.745,0,0,1,.554-2.562,4.064,4.064,0,0,1,1.569-1.74,4.4,4.4,0,0,1,2.316-.611,3.947,3.947,0,0,1,3.072,1.23,5,5,0,0,1,1.121,3.489v1.037H14.906a2.36,2.36,0,0,0,.743,1.494,2.245,2.245,0,0,0,1.569.563,2.742,2.742,0,0,0,2.294-1.063l1.248,1.4A3.813,3.813,0,0,1,19.213-.277,5.075,5.075,0,0,1,17.051.176Zm-.29-7.813a1.587,1.587,0,0,0-1.226.512,2.651,2.651,0,0,0-.6,1.466h3.533v-.2a1.891,1.891,0,0,0-.457-1.311A1.638,1.638,0,0,0,16.761-7.638Zm10.793,5.01a.818.818,0,0,0-.461-.734,5.241,5.241,0,0,0-1.481-.479q-3.393-.712-3.393-2.883a2.613,2.613,0,0,1,1.05-2.114,4.237,4.237,0,0,1,2.747-.848,4.56,4.56,0,0,1,2.9.853A2.687,2.687,0,0,1,30-6.618h-2.54a1.229,1.229,0,0,0-.352-.9,1.488,1.488,0,0,0-1.1-.356,1.52,1.52,0,0,0-.993.29.916.916,0,0,0-.352.738.783.783,0,0,0,.4.681,4.114,4.114,0,0,0,1.349.448,11.019,11.019,0,0,1,1.6.426,2.628,2.628,0,0,1,2.013,2.558,2.481,2.481,0,0,1-1.116,2.1,4.815,4.815,0,0,1-2.883.8A5.029,5.029,0,0,1,23.9-.25a3.561,3.561,0,0,1-1.455-1.169,2.716,2.716,0,0,1-.527-1.6h2.408a1.326,1.326,0,0,0,.5,1.037,1.987,1.987,0,0,0,1.248.36,1.839,1.839,0,0,0,1.1-.277A.861.861,0,0,0,27.554-2.628Zm8.06.756a1.666,1.666,0,0,0,1.143-.387,1.355,1.355,0,0,0,.457-1.028h2.382a3.258,3.258,0,0,1-.527,1.771A3.48,3.48,0,0,1,37.648-.268a4.442,4.442,0,0,1-1.991.444,4.129,4.129,0,0,1-3.217-1.3A5.13,5.13,0,0,1,31.263-4.7v-.167a5.071,5.071,0,0,1,1.169-3.507,4.08,4.08,0,0,1,3.208-1.31A4,4,0,0,1,38.5-8.67a3.594,3.594,0,0,1,1.094,2.7H37.213a1.745,1.745,0,0,0-.457-1.206,1.524,1.524,0,0,0-1.16-.464,1.53,1.53,0,0,0-1.34.647,3.749,3.749,0,0,0-.453,2.1v.264a3.8,3.8,0,0,0,.448,2.113A1.549,1.549,0,0,0,35.613-1.872ZM46.389-7.128a6.9,6.9,0,0,0-.914-.07,1.86,1.86,0,0,0-1.89.976V0h-2.54V-9.51h2.4l.07,1.134a2.354,2.354,0,0,1,2.118-1.31,2.662,2.662,0,0,1,.791.114ZM50.291,0H47.742V-9.51h2.549Zm-2.7-11.971a1.251,1.251,0,0,1,.382-.94,1.436,1.436,0,0,1,1.042-.369,1.44,1.44,0,0,1,1.037.369,1.244,1.244,0,0,1,.387.94,1.247,1.247,0,0,1-.391.949,1.443,1.443,0,0,1-1.033.369,1.443,1.443,0,0,1-1.033-.369A1.247,1.247,0,0,1,47.593-11.971Zm13.351,7.3a5.7,5.7,0,0,1-1,3.52A3.2,3.2,0,0,1,57.252.176a2.963,2.963,0,0,1-2.329-1V3.656h-2.54V-9.51h2.355l.088.932a2.985,2.985,0,0,1,2.408-1.107,3.22,3.22,0,0,1,2.733,1.3A5.858,5.858,0,0,1,60.943-4.8ZM58.4-4.861a3.763,3.763,0,0,0-.47-2.054,1.53,1.53,0,0,0-1.367-.723,1.662,1.662,0,0,0-1.644.917v3.906a1.691,1.691,0,0,0,1.661.943Q58.4-1.872,58.4-4.861Zm8.068,2.989a1.666,1.666,0,0,0,1.143-.387,1.355,1.355,0,0,0,.457-1.028h2.382a3.258,3.258,0,0,1-.527,1.771A3.48,3.48,0,0,1,68.506-.268a4.442,4.442,0,0,1-1.991.444,4.129,4.129,0,0,1-3.217-1.3A5.13,5.13,0,0,1,62.121-4.7v-.167A5.071,5.071,0,0,1,63.29-8.376,4.08,4.08,0,0,1,66.5-9.686,4,4,0,0,1,69.359-8.67a3.594,3.594,0,0,1,1.094,2.7H68.071a1.745,1.745,0,0,0-.457-1.206,1.524,1.524,0,0,0-1.16-.464,1.53,1.53,0,0,0-1.34.647,3.749,3.749,0,0,0-.453,2.1v.264a3.8,3.8,0,0,0,.448,2.113A1.549,1.549,0,0,0,66.472-1.872ZM74.584,0H72.035V-9.51h2.549Zm-2.7-11.971a1.251,1.251,0,0,1,.382-.94,1.436,1.436,0,0,1,1.042-.369,1.44,1.44,0,0,1,1.037.369,1.244,1.244,0,0,1,.387.94,1.247,1.247,0,0,1-.391.949,1.443,1.443,0,0,1-1.033.369,1.443,1.443,0,0,1-1.033-.369A1.247,1.247,0,0,1,71.886-11.971ZM76.28-4.843a5.64,5.64,0,0,1,.545-2.522,3.989,3.989,0,0,1,1.569-1.714,4.577,4.577,0,0,1,2.377-.606,4.33,4.33,0,0,1,3.142,1.178,4.727,4.727,0,0,1,1.358,3.2l.018.65a4.97,4.97,0,0,1-1.222,3.511A4.247,4.247,0,0,1,80.789.176a4.268,4.268,0,0,1-3.283-1.318A5.058,5.058,0,0,1,76.28-4.729Zm2.54.18a3.555,3.555,0,0,0,.51,2.073,1.682,1.682,0,0,0,1.459.717,1.686,1.686,0,0,0,1.441-.709,3.89,3.89,0,0,0,.519-2.267,3.519,3.519,0,0,0-.519-2.06,1.686,1.686,0,0,0-1.459-.731,1.658,1.658,0,0,0-1.441.726A3.955,3.955,0,0,0,78.82-4.662ZM81.272-13.5h2.769l-2.435,2.725H79.541Zm7.919,3.99.079,1.1A3.32,3.32,0,0,1,92-9.686a2.759,2.759,0,0,1,2.25.888,4.142,4.142,0,0,1,.756,2.654V0H92.47V-6.1a1.654,1.654,0,0,0-.352-1.176,1.572,1.572,0,0,0-1.169-.366,1.747,1.747,0,0,0-1.608.916V0H86.8V-9.51Z" transform="translate(-4883.323 -12493.536)" fill="#12263f"/>
    <path id="Trazado_151897" data-name="Trazado 151897" d="M8.842-5.229H3.779V0H1.143V-12.8H9.475v2.136h-5.7v3.3H8.842Zm1.415.387A5.64,5.64,0,0,1,10.8-7.365a3.989,3.989,0,0,1,1.569-1.714,4.577,4.577,0,0,1,2.377-.606A4.33,4.33,0,0,1,17.89-8.508a4.727,4.727,0,0,1,1.358,3.2l.018.65a4.97,4.97,0,0,1-1.222,3.511A4.247,4.247,0,0,1,14.766.176a4.268,4.268,0,0,1-3.283-1.318,5.058,5.058,0,0,1-1.226-3.586Zm2.54.18a3.555,3.555,0,0,0,.51,2.073,1.682,1.682,0,0,0,1.459.717,1.686,1.686,0,0,0,1.441-.709,3.89,3.89,0,0,0,.519-2.267,3.519,3.519,0,0,0-.519-2.06,1.686,1.686,0,0,0-1.459-.731,1.658,1.658,0,0,0-1.441.726A3.955,3.955,0,0,0,12.8-4.662ZM26.174-7.128a6.9,6.9,0,0,0-.914-.07,1.86,1.86,0,0,0-1.89.976V0H20.83V-9.51h2.4l.07,1.134a2.354,2.354,0,0,1,2.118-1.31,2.662,2.662,0,0,1,.791.114Zm3.6-2.382.079,1.063A3.342,3.342,0,0,1,32.59-9.686a2.536,2.536,0,0,1,2.522,1.45,3.265,3.265,0,0,1,2.856-1.45,2.836,2.836,0,0,1,2.3.9,4.141,4.141,0,0,1,.756,2.711V0H38.479V-6.078a1.818,1.818,0,0,0-.316-1.185,1.4,1.4,0,0,0-1.116-.374,1.585,1.585,0,0,0-1.582,1.092L35.473,0h-2.54V-6.07a1.8,1.8,0,0,0-.325-1.2,1.414,1.414,0,0,0-1.107-.37,1.645,1.645,0,0,0-1.564.9V0H27.4V-9.51ZM48.489,0a2.821,2.821,0,0,1-.255-.853,3.073,3.073,0,0,1-2.4,1.028,3.376,3.376,0,0,1-2.316-.809A2.6,2.6,0,0,1,42.6-2.672a2.687,2.687,0,0,1,1.121-2.32A5.529,5.529,0,0,1,46.96-5.81h1.169v-.545a1.567,1.567,0,0,0-.338-1.055,1.331,1.331,0,0,0-1.068-.4,1.513,1.513,0,0,0-1.006.308,1.045,1.045,0,0,0-.365.844h-2.54a2.551,2.551,0,0,1,.51-1.529,3.37,3.37,0,0,1,1.441-1.1,5.253,5.253,0,0,1,2.092-.4,4.15,4.15,0,0,1,2.791.883,3.09,3.09,0,0,1,1.033,2.483V-2.2a4.546,4.546,0,0,0,.378,2.048V0Zm-2.1-1.767a2.188,2.188,0,0,0,1.037-.25,1.645,1.645,0,0,0,.7-.672V-4.324H47.18q-1.907,0-2.03,1.318l-.009.149a1.017,1.017,0,0,0,.334.782A1.3,1.3,0,0,0,46.389-1.767ZM57.806,0V-7.646H56.391V-9.51h1.415v-.809a3.283,3.283,0,0,1,.918-2.483,3.557,3.557,0,0,1,2.571-.883,5.987,5.987,0,0,1,1.292.174l-.026,1.953a3.238,3.238,0,0,0-.773-.079q-1.433,0-1.433,1.356v.771h1.89v1.863h-1.89V0ZM69.073,0a2.821,2.821,0,0,1-.255-.853,3.073,3.073,0,0,1-2.4,1.028A3.376,3.376,0,0,1,64.1-.633a2.6,2.6,0,0,1-.918-2.039,2.687,2.687,0,0,1,1.121-2.32,5.529,5.529,0,0,1,3.239-.817h1.169v-.545a1.567,1.567,0,0,0-.338-1.055,1.331,1.331,0,0,0-1.068-.4A1.513,1.513,0,0,0,66.3-7.5a1.045,1.045,0,0,0-.365.844H63.4a2.551,2.551,0,0,1,.51-1.529,3.37,3.37,0,0,1,1.441-1.1,5.253,5.253,0,0,1,2.092-.4,4.15,4.15,0,0,1,2.791.883,3.09,3.09,0,0,1,1.033,2.483V-2.2A4.546,4.546,0,0,0,71.64-.149V0Zm-2.1-1.767a2.188,2.188,0,0,0,1.037-.25,1.645,1.645,0,0,0,.7-.672V-4.324h-.949q-1.907,0-2.03,1.318l-.009.149a1.017,1.017,0,0,0,.334.782A1.3,1.3,0,0,0,66.973-1.767ZM78.557-7.128a6.9,6.9,0,0,0-.914-.07,1.86,1.86,0,0,0-1.89.976V0h-2.54V-9.51h2.4l.07,1.134A2.354,2.354,0,0,1,77.8-9.686a2.662,2.662,0,0,1,.791.114Zm3.6-2.382.079,1.063a3.342,3.342,0,0,1,2.733-1.239A2.536,2.536,0,0,1,87.5-8.235a3.265,3.265,0,0,1,2.856-1.45,2.836,2.836,0,0,1,2.3.9,4.141,4.141,0,0,1,.756,2.711V0H90.861V-6.078a1.818,1.818,0,0,0-.316-1.185,1.4,1.4,0,0,0-1.116-.374,1.585,1.585,0,0,0-1.582,1.092L87.855,0h-2.54V-6.07a1.8,1.8,0,0,0-.325-1.2,1.414,1.414,0,0,0-1.107-.37,1.645,1.645,0,0,0-1.564.9V0h-2.54V-9.51ZM100.872,0a2.821,2.821,0,0,1-.255-.853,3.073,3.073,0,0,1-2.4,1.028A3.376,3.376,0,0,1,95.9-.633a2.6,2.6,0,0,1-.918-2.039A2.687,2.687,0,0,1,96.1-4.992a5.529,5.529,0,0,1,3.239-.817h1.169v-.545a1.567,1.567,0,0,0-.338-1.055,1.331,1.331,0,0,0-1.068-.4A1.513,1.513,0,0,0,98.1-7.5a1.045,1.045,0,0,0-.365.844h-2.54a2.551,2.551,0,0,1,.51-1.529,3.37,3.37,0,0,1,1.441-1.1,5.253,5.253,0,0,1,2.092-.4,4.15,4.15,0,0,1,2.791.883,3.09,3.09,0,0,1,1.033,2.483V-2.2a4.546,4.546,0,0,0,.378,2.048V0Zm-2.1-1.767a2.188,2.188,0,0,0,1.037-.25,1.645,1.645,0,0,0,.7-.672V-4.324h-.949q-1.907,0-2.03,1.318l-.009.149a1.017,1.017,0,0,0,.334.782A1.3,1.3,0,0,0,98.771-1.767Zm10.2-.105a1.666,1.666,0,0,0,1.143-.387,1.355,1.355,0,0,0,.457-1.028h2.382a3.258,3.258,0,0,1-.527,1.771A3.48,3.48,0,0,1,111-.268a4.442,4.442,0,0,1-1.991.444,4.129,4.129,0,0,1-3.217-1.3A5.13,5.13,0,0,1,104.616-4.7v-.167a5.071,5.071,0,0,1,1.169-3.507,4.08,4.08,0,0,1,3.208-1.31,4,4,0,0,1,2.861,1.015,3.594,3.594,0,0,1,1.094,2.7h-2.382a1.745,1.745,0,0,0-.457-1.206,1.524,1.524,0,0,0-1.16-.464,1.53,1.53,0,0,0-1.34.647,3.749,3.749,0,0,0-.453,2.1v.264a3.8,3.8,0,0,0,.448,2.113A1.549,1.549,0,0,0,108.967-1.872ZM118.775.176a4.668,4.668,0,0,1-3.406-1.283,4.561,4.561,0,0,1-1.314-3.419v-.246a5.745,5.745,0,0,1,.554-2.562,4.064,4.064,0,0,1,1.569-1.74,4.4,4.4,0,0,1,2.316-.611,3.947,3.947,0,0,1,3.072,1.23,5,5,0,0,1,1.121,3.489v1.037h-6.056a2.36,2.36,0,0,0,.743,1.494,2.245,2.245,0,0,0,1.569.563,2.742,2.742,0,0,0,2.294-1.063l1.248,1.4a3.813,3.813,0,0,1-1.547,1.261A5.075,5.075,0,0,1,118.775.176Zm-.29-7.813a1.587,1.587,0,0,0-1.226.512,2.651,2.651,0,0,0-.6,1.466h3.533v-.2a1.891,1.891,0,0,0-.457-1.311A1.638,1.638,0,0,0,118.485-7.638Zm.229-5.862h2.769l-2.435,2.725h-2.065ZM129.823-.967a3.185,3.185,0,0,1-2.6,1.143A3,3,0,0,1,124.888-.7a3.752,3.752,0,0,1-.822-2.575V-9.51h2.54v6.151q0,1.487,1.354,1.487a1.834,1.834,0,0,0,1.775-.9V-9.51h2.549V0h-2.391Zm7.418-10.881V-9.51h1.626v1.863h-1.626V-2.9a1.133,1.133,0,0,0,.2.756,1.015,1.015,0,0,0,.773.229,4.051,4.051,0,0,0,.747-.062V-.053a5.229,5.229,0,0,1-1.538.229,2.425,2.425,0,0,1-2.725-2.7V-7.646h-1.389V-9.51H134.7v-2.338ZM142.963,0h-2.549V-9.51h2.549Zm-2.7-11.971a1.251,1.251,0,0,1,.382-.94,1.436,1.436,0,0,1,1.042-.369,1.44,1.44,0,0,1,1.037.369,1.244,1.244,0,0,1,.387.94,1.247,1.247,0,0,1-.391.949,1.443,1.443,0,0,1-1.033.369,1.443,1.443,0,0,1-1.033-.369A1.247,1.247,0,0,1,140.265-11.971Zm8.745,10.1a1.666,1.666,0,0,0,1.143-.387,1.355,1.355,0,0,0,.457-1.028h2.382a3.258,3.258,0,0,1-.527,1.771,3.48,3.48,0,0,1-1.419,1.248,4.442,4.442,0,0,1-1.991.444,4.129,4.129,0,0,1-3.217-1.3A5.13,5.13,0,0,1,144.659-4.7v-.167a5.071,5.071,0,0,1,1.169-3.507,4.08,4.08,0,0,1,3.208-1.31A4,4,0,0,1,151.9-8.67a3.594,3.594,0,0,1,1.094,2.7h-2.382a1.745,1.745,0,0,0-.457-1.206,1.524,1.524,0,0,0-1.16-.464,1.53,1.53,0,0,0-1.34.647,3.749,3.749,0,0,0-.453,2.1v.264a3.8,3.8,0,0,0,.448,2.113A1.549,1.549,0,0,0,149.01-1.872ZM159.952,0a2.821,2.821,0,0,1-.255-.853A3.073,3.073,0,0,1,157.3.176a3.376,3.376,0,0,1-2.316-.809,2.6,2.6,0,0,1-.918-2.039,2.687,2.687,0,0,1,1.121-2.32,5.529,5.529,0,0,1,3.239-.817h1.169v-.545a1.567,1.567,0,0,0-.338-1.055,1.331,1.331,0,0,0-1.068-.4,1.513,1.513,0,0,0-1.006.308,1.045,1.045,0,0,0-.365.844h-2.54a2.551,2.551,0,0,1,.51-1.529,3.37,3.37,0,0,1,1.441-1.1,5.253,5.253,0,0,1,2.092-.4,4.15,4.15,0,0,1,2.791.883,3.09,3.09,0,0,1,1.033,2.483V-2.2a4.546,4.546,0,0,0,.378,2.048V0Zm-2.1-1.767a2.188,2.188,0,0,0,1.037-.25,1.645,1.645,0,0,0,.7-.672V-4.324h-.949q-1.907,0-2.03,1.318l-.009.149a1.017,1.017,0,0,0,.334.782A1.3,1.3,0,0,0,157.852-1.767Z" transform="translate(-4743.569 -12493.536)" fill="#12263f"/>
    <path id="Trazado_151898" data-name="Trazado 151898" d="M5.871-3.173l2.9-9.624h2.936L7.251,0H4.5L.062-12.8H2.988ZM17.851,0A2.821,2.821,0,0,1,17.6-.853,3.073,3.073,0,0,1,15.2.176,3.376,3.376,0,0,1,12.88-.633a2.6,2.6,0,0,1-.918-2.039,2.687,2.687,0,0,1,1.121-2.32,5.529,5.529,0,0,1,3.239-.817H17.49v-.545a1.567,1.567,0,0,0-.338-1.055,1.331,1.331,0,0,0-1.068-.4,1.513,1.513,0,0,0-1.006.308,1.045,1.045,0,0,0-.365.844h-2.54a2.551,2.551,0,0,1,.51-1.529,3.37,3.37,0,0,1,1.441-1.1,5.253,5.253,0,0,1,2.092-.4,4.15,4.15,0,0,1,2.791.883,3.09,3.09,0,0,1,1.033,2.483V-2.2a4.546,4.546,0,0,0,.378,2.048V0Zm-2.1-1.767a2.188,2.188,0,0,0,1.037-.25,1.645,1.645,0,0,0,.7-.672V-4.324h-.949q-1.907,0-2.03,1.318l-.009.149a1.017,1.017,0,0,0,.334.782A1.3,1.3,0,0,0,15.75-1.767ZM24.671,0H22.122V-13.5h2.549Zm1.7-4.843a5.64,5.64,0,0,1,.545-2.522,3.989,3.989,0,0,1,1.569-1.714,4.577,4.577,0,0,1,2.377-.606A4.33,4.33,0,0,1,34-8.508a4.727,4.727,0,0,1,1.358,3.2l.018.65a4.97,4.97,0,0,1-1.222,3.511A4.247,4.247,0,0,1,30.876.176a4.268,4.268,0,0,1-3.283-1.318,5.058,5.058,0,0,1-1.226-3.586Zm2.54.18a3.555,3.555,0,0,0,.51,2.073,1.682,1.682,0,0,0,1.459.717,1.686,1.686,0,0,0,1.441-.709,3.89,3.89,0,0,0,.519-2.267,3.519,3.519,0,0,0-.519-2.06,1.686,1.686,0,0,0-1.459-.731,1.658,1.658,0,0,0-1.441.726A3.955,3.955,0,0,0,28.907-4.662ZM42.284-7.128a6.9,6.9,0,0,0-.914-.07,1.86,1.86,0,0,0-1.89.976V0H36.94V-9.51h2.4l.07,1.134a2.354,2.354,0,0,1,2.118-1.31,2.662,2.662,0,0,1,.791.114Zm11.4,6.161a3.185,3.185,0,0,1-2.6,1.143A3,3,0,0,1,48.749-.7a3.752,3.752,0,0,1-.822-2.575V-9.51h2.54v6.151q0,1.487,1.354,1.487a1.834,1.834,0,0,0,1.775-.9V-9.51h2.549V0H53.754ZM60.4-9.51l.079,1.1a3.32,3.32,0,0,1,2.733-1.274,2.759,2.759,0,0,1,2.25.888,4.142,4.142,0,0,1,.756,2.654V0h-2.54V-6.1a1.654,1.654,0,0,0-.352-1.176,1.572,1.572,0,0,0-1.169-.366,1.747,1.747,0,0,0-1.608.916V0h-2.54V-9.51ZM70.822,0H68.273V-9.51h2.549Zm-2.7-11.971a1.251,1.251,0,0,1,.382-.94,1.436,1.436,0,0,1,1.042-.369,1.44,1.44,0,0,1,1.037.369,1.244,1.244,0,0,1,.387.94,1.247,1.247,0,0,1-.391.949,1.443,1.443,0,0,1-1.033.369,1.443,1.443,0,0,1-1.033-.369A1.247,1.247,0,0,1,68.124-11.971Zm7.831.123V-9.51h1.626v1.863H75.955V-2.9a1.133,1.133,0,0,0,.2.756,1.015,1.015,0,0,0,.773.229,4.051,4.051,0,0,0,.747-.062V-.053A5.229,5.229,0,0,1,76.14.176a2.425,2.425,0,0,1-2.725-2.7V-7.646H72.026V-9.51h1.389v-2.338ZM84.507,0a2.821,2.821,0,0,1-.255-.853,3.073,3.073,0,0,1-2.4,1.028,3.376,3.376,0,0,1-2.316-.809,2.6,2.6,0,0,1-.918-2.039,2.687,2.687,0,0,1,1.121-2.32,5.529,5.529,0,0,1,3.239-.817h1.169v-.545a1.567,1.567,0,0,0-.338-1.055,1.331,1.331,0,0,0-1.068-.4,1.513,1.513,0,0,0-1.006.308,1.045,1.045,0,0,0-.365.844h-2.54a2.551,2.551,0,0,1,.51-1.529,3.37,3.37,0,0,1,1.441-1.1,5.253,5.253,0,0,1,2.092-.4,4.15,4.15,0,0,1,2.791.883A3.09,3.09,0,0,1,86.7-6.319V-2.2a4.546,4.546,0,0,0,.378,2.048V0Zm-2.1-1.767a2.188,2.188,0,0,0,1.037-.25,1.645,1.645,0,0,0,.7-.672V-4.324H83.2q-1.907,0-2.03,1.318l-.009.149a1.017,1.017,0,0,0,.334.782A1.3,1.3,0,0,0,82.406-1.767ZM93.99-7.128a6.9,6.9,0,0,0-.914-.07,1.86,1.86,0,0,0-1.89.976V0h-2.54V-9.51h2.4l.07,1.134a2.354,2.354,0,0,1,2.118-1.31,2.662,2.662,0,0,1,.791.114ZM97.893,0H95.344V-9.51h2.549Zm-2.7-11.971a1.251,1.251,0,0,1,.382-.94,1.436,1.436,0,0,1,1.042-.369,1.44,1.44,0,0,1,1.037.369,1.244,1.244,0,0,1,.387.94,1.247,1.247,0,0,1-.391.949,1.443,1.443,0,0,1-1.033.369,1.443,1.443,0,0,1-1.033-.369A1.247,1.247,0,0,1,95.194-11.971Zm4.395,7.128a5.64,5.64,0,0,1,.545-2.522A3.989,3.989,0,0,1,101.7-9.079a4.577,4.577,0,0,1,2.377-.606,4.33,4.33,0,0,1,3.142,1.178,4.727,4.727,0,0,1,1.358,3.2l.018.65a4.97,4.97,0,0,1-1.222,3.511A4.247,4.247,0,0,1,104.1.176a4.268,4.268,0,0,1-3.283-1.318,5.058,5.058,0,0,1-1.226-3.586Zm2.54.18a3.555,3.555,0,0,0,.51,2.073,1.682,1.682,0,0,0,1.459.717,1.686,1.686,0,0,0,1.441-.709,3.89,3.89,0,0,0,.519-2.267,3.519,3.519,0,0,0-.519-2.06,1.686,1.686,0,0,0-1.459-.731,1.658,1.658,0,0,0-1.441.726A3.955,3.955,0,0,0,102.129-4.662Z" transform="translate(-4555.921 -12493.536)" fill="#12263f"/>
    <path id="Trazado_151899" data-name="Trazado 151899" d="M5.871-3.173l2.9-9.624h2.936L7.251,0H4.5L.062-12.8H2.988ZM17.851,0A2.821,2.821,0,0,1,17.6-.853,3.073,3.073,0,0,1,15.2.176,3.376,3.376,0,0,1,12.88-.633a2.6,2.6,0,0,1-.918-2.039,2.687,2.687,0,0,1,1.121-2.32,5.529,5.529,0,0,1,3.239-.817H17.49v-.545a1.567,1.567,0,0,0-.338-1.055,1.331,1.331,0,0,0-1.068-.4,1.513,1.513,0,0,0-1.006.308,1.045,1.045,0,0,0-.365.844h-2.54a2.551,2.551,0,0,1,.51-1.529,3.37,3.37,0,0,1,1.441-1.1,5.253,5.253,0,0,1,2.092-.4,4.15,4.15,0,0,1,2.791.883,3.09,3.09,0,0,1,1.033,2.483V-2.2a4.546,4.546,0,0,0,.378,2.048V0Zm-2.1-1.767a2.188,2.188,0,0,0,1.037-.25,1.645,1.645,0,0,0,.7-.672V-4.324h-.949q-1.907,0-2.03,1.318l-.009.149a1.017,1.017,0,0,0,.334.782A1.3,1.3,0,0,0,15.75-1.767ZM24.671,0H22.122V-13.5h2.549Zm1.7-4.843a5.64,5.64,0,0,1,.545-2.522,3.989,3.989,0,0,1,1.569-1.714,4.577,4.577,0,0,1,2.377-.606A4.33,4.33,0,0,1,34-8.508a4.727,4.727,0,0,1,1.358,3.2l.018.65a4.97,4.97,0,0,1-1.222,3.511A4.247,4.247,0,0,1,30.876.176a4.268,4.268,0,0,1-3.283-1.318,5.058,5.058,0,0,1-1.226-3.586Zm2.54.18a3.555,3.555,0,0,0,.51,2.073,1.682,1.682,0,0,0,1.459.717,1.686,1.686,0,0,0,1.441-.709,3.89,3.89,0,0,0,.519-2.267,3.519,3.519,0,0,0-.519-2.06,1.686,1.686,0,0,0-1.459-.731,1.658,1.658,0,0,0-1.441.726A3.955,3.955,0,0,0,28.907-4.662ZM42.284-7.128a6.9,6.9,0,0,0-.914-.07,1.86,1.86,0,0,0-1.89.976V0H36.94V-9.51h2.4l.07,1.134a2.354,2.354,0,0,1,2.118-1.31,2.662,2.662,0,0,1,.791.114Zm8.745-4.72V-9.51h1.626v1.863H51.029V-2.9a1.133,1.133,0,0,0,.2.756A1.015,1.015,0,0,0,52-1.916a4.051,4.051,0,0,0,.747-.062V-.053a5.229,5.229,0,0,1-1.538.229,2.425,2.425,0,0,1-2.725-2.7V-7.646H47.1V-9.51h1.389v-2.338Zm2.382,7a5.64,5.64,0,0,1,.545-2.522,3.989,3.989,0,0,1,1.569-1.714A4.577,4.577,0,0,1,57.9-9.686a4.33,4.33,0,0,1,3.142,1.178,4.727,4.727,0,0,1,1.358,3.2l.018.65A4.97,4.97,0,0,1,61.2-1.147,4.247,4.247,0,0,1,57.92.176a4.268,4.268,0,0,1-3.283-1.318,5.058,5.058,0,0,1-1.226-3.586Zm2.54.18a3.555,3.555,0,0,0,.51,2.073,1.682,1.682,0,0,0,1.459.717,1.686,1.686,0,0,0,1.441-.709,3.89,3.89,0,0,0,.519-2.267,3.519,3.519,0,0,0-.519-2.06A1.686,1.686,0,0,0,57.9-7.638a1.658,1.658,0,0,0-1.441.726A3.955,3.955,0,0,0,55.951-4.662Zm11.074-7.185V-9.51h1.626v1.863H67.025V-2.9a1.133,1.133,0,0,0,.2.756A1.015,1.015,0,0,0,68-1.916a4.051,4.051,0,0,0,.747-.062V-.053A5.229,5.229,0,0,1,67.21.176a2.425,2.425,0,0,1-2.725-2.7V-7.646H63.1V-9.51h1.389v-2.338ZM75.577,0a2.821,2.821,0,0,1-.255-.853,3.073,3.073,0,0,1-2.4,1.028,3.376,3.376,0,0,1-2.316-.809,2.6,2.6,0,0,1-.918-2.039,2.687,2.687,0,0,1,1.121-2.32,5.529,5.529,0,0,1,3.239-.817h1.169v-.545a1.567,1.567,0,0,0-.338-1.055,1.331,1.331,0,0,0-1.068-.4A1.513,1.513,0,0,0,72.8-7.5a1.045,1.045,0,0,0-.365.844H69.9a2.551,2.551,0,0,1,.51-1.529,3.37,3.37,0,0,1,1.441-1.1,5.253,5.253,0,0,1,2.092-.4,4.15,4.15,0,0,1,2.791.883,3.09,3.09,0,0,1,1.033,2.483V-2.2a4.546,4.546,0,0,0,.378,2.048V0Zm-2.1-1.767a2.188,2.188,0,0,0,1.037-.25,1.645,1.645,0,0,0,.7-.672V-4.324h-.949q-1.907,0-2.03,1.318l-.009.149a1.017,1.017,0,0,0,.334.782A1.3,1.3,0,0,0,73.477-1.767ZM82.4,0H79.849V-13.5H82.4Z" transform="translate(-4375.831 -12493.536)" fill="#12263f"/>
    <path id="Trazado_151900" data-name="Trazado 151900" d="M6.05-2.611A1.052,1.052,0,0,0,5.64-3.5,5.38,5.38,0,0,0,4.163-4.16a10.467,10.467,0,0,1-1.688-.68,2.759,2.759,0,0,1-1.7-2.468,2.4,2.4,0,0,1,.455-1.439A2.965,2.965,0,0,1,2.54-9.734,4.914,4.914,0,0,1,4.45-10.09a4.473,4.473,0,0,1,1.9.386,3.026,3.026,0,0,1,1.3,1.09,2.853,2.853,0,0,1,.461,1.6H6.057a1.342,1.342,0,0,0-.431-1.063,1.77,1.77,0,0,0-1.21-.379,1.891,1.891,0,0,0-1.169.318A1,1,0,0,0,2.83-7.3a.96.96,0,0,0,.489.813,5.522,5.522,0,0,0,1.439.615,6.217,6.217,0,0,1,2.55,1.306,2.6,2.6,0,0,1,.8,1.941A2.4,2.4,0,0,1,7.13-.6,4.279,4.279,0,0,1,4.5.137a5.082,5.082,0,0,1-2.092-.42A3.31,3.31,0,0,1,.967-1.436a2.95,2.95,0,0,1-.5-1.7H2.529q0,1.647,1.969,1.647a1.915,1.915,0,0,0,1.142-.3A.967.967,0,0,0,6.05-2.611ZM13.795-.752a2.477,2.477,0,0,1-2.023.889A2.337,2.337,0,0,1,9.957-.547a2.918,2.918,0,0,1-.639-2V-7.4h1.976v4.784q0,1.157,1.053,1.157a1.426,1.426,0,0,0,1.381-.7V-7.4h1.982V0H13.85ZM23.864-3.63a4.479,4.479,0,0,1-.759,2.772,2.513,2.513,0,0,1-2.119.995,2.309,2.309,0,0,1-1.921-.923L18.977,0H17.2V-10.5h1.976v3.767a2.25,2.25,0,0,1,1.8-.8,2.534,2.534,0,0,1,2.123.995,4.485,4.485,0,0,1,.769,2.8ZM21.889-3.78a2.959,2.959,0,0,0-.355-1.642,1.2,1.2,0,0,0-1.06-.518,1.3,1.3,0,0,0-1.3.775v2.928a1.32,1.32,0,0,0,1.313.782A1.22,1.22,0,0,0,21.745-2.4,4.9,4.9,0,0,0,21.889-3.78Zm5.558-5.434V-7.4h1.265v1.449H27.446v3.691a.881.881,0,0,0,.157.588.79.79,0,0,0,.6.178,3.151,3.151,0,0,0,.581-.048v1.5a4.067,4.067,0,0,1-1.2.178,1.886,1.886,0,0,1-2.119-2.1V-5.947h-1.08V-7.4h1.08V-9.215ZM29.3-3.767a4.387,4.387,0,0,1,.424-1.962,3.1,3.1,0,0,1,1.22-1.333,3.56,3.56,0,0,1,1.849-.472,3.368,3.368,0,0,1,2.444.916,3.676,3.676,0,0,1,1.056,2.488l.014.506a3.866,3.866,0,0,1-.95,2.731A3.3,3.3,0,0,1,32.806.137,3.319,3.319,0,0,1,30.252-.889,3.934,3.934,0,0,1,29.3-3.678Zm1.976.14a2.765,2.765,0,0,0,.4,1.612,1.308,1.308,0,0,0,1.135.558,1.311,1.311,0,0,0,1.121-.551,3.025,3.025,0,0,0,.4-1.763,2.737,2.737,0,0,0-.4-1.6,1.311,1.311,0,0,0-1.135-.568,1.29,1.29,0,0,0-1.121.565A3.076,3.076,0,0,0,31.274-3.626Zm8.613-5.588V-7.4h1.265v1.449H39.888v3.691a.881.881,0,0,0,.157.588.79.79,0,0,0,.6.178,3.151,3.151,0,0,0,.581-.048v1.5a4.067,4.067,0,0,1-1.2.178,1.886,1.886,0,0,1-2.119-2.1V-5.947h-1.08V-7.4h1.08V-9.215ZM46.539,0a2.194,2.194,0,0,1-.2-.663,2.39,2.39,0,0,1-1.866.8,2.626,2.626,0,0,1-1.8-.629,2.023,2.023,0,0,1-.714-1.586,2.09,2.09,0,0,1,.872-1.8,4.3,4.3,0,0,1,2.519-.636h.909v-.424A1.219,1.219,0,0,0,46-5.763a1.035,1.035,0,0,0-.831-.308,1.177,1.177,0,0,0-.783.239.813.813,0,0,0-.284.656H42.123a1.984,1.984,0,0,1,.4-1.189,2.621,2.621,0,0,1,1.121-.858,4.086,4.086,0,0,1,1.627-.311,3.228,3.228,0,0,1,2.17.687,2.4,2.4,0,0,1,.8,1.931v3.206a3.536,3.536,0,0,0,.294,1.593V0ZM44.905-1.374a1.7,1.7,0,0,0,.807-.195,1.28,1.28,0,0,0,.547-.523V-3.363h-.738q-1.483,0-1.579,1.025l-.007.116a.791.791,0,0,0,.26.608A1.009,1.009,0,0,0,44.905-1.374ZM51.844,0H49.861V-10.5h1.982Z" transform="translate(-4476.498 -12309.669)" fill="#12263f"/>
    <path id="Trazado_151901" data-name="Trazado 151901" d="M12.19,0H9.407L3.989-8.888V0H1.206V-13.508H3.989L9.417-4.6v-8.906H12.19Zm1.837-5.112A5.953,5.953,0,0,1,14.6-7.774a4.211,4.211,0,0,1,1.656-1.809,4.831,4.831,0,0,1,2.51-.64A4.571,4.571,0,0,1,22.085-8.98,4.989,4.989,0,0,1,23.518-5.6l.019.687a5.247,5.247,0,0,1-1.29,3.706,4.482,4.482,0,0,1-3.46,1.4,4.5,4.5,0,0,1-3.465-1.392,5.339,5.339,0,0,1-1.294-3.785Zm2.681.19a3.752,3.752,0,0,0,.538,2.188,1.775,1.775,0,0,0,1.54.757,1.779,1.779,0,0,0,1.521-.748,4.106,4.106,0,0,0,.547-2.393,3.715,3.715,0,0,0-.547-2.174,1.779,1.779,0,0,0-1.54-.771,1.75,1.75,0,0,0-1.521.767A4.175,4.175,0,0,0,16.708-4.921ZM28.4-12.506v2.468h1.716v1.967H28.4v5.01a1.2,1.2,0,0,0,.213.8,1.072,1.072,0,0,0,.816.241,4.276,4.276,0,0,0,.789-.065V-.056a5.52,5.52,0,0,1-1.624.241,2.56,2.56,0,0,1-2.876-2.848V-8.071H24.251v-1.967h1.466v-2.468ZM37.425,0a2.977,2.977,0,0,1-.269-.9A3.244,3.244,0,0,1,34.623.186a3.564,3.564,0,0,1-2.445-.854,2.745,2.745,0,0,1-.969-2.152A2.837,2.837,0,0,1,32.392-5.27a5.837,5.837,0,0,1,3.419-.863h1.234v-.575a1.654,1.654,0,0,0-.357-1.113,1.405,1.405,0,0,0-1.127-.417,1.6,1.6,0,0,0-1.062.325,1.1,1.1,0,0,0-.385.891H31.432a2.693,2.693,0,0,1,.538-1.614A3.557,3.557,0,0,1,33.491-9.8a5.545,5.545,0,0,1,2.208-.422,4.381,4.381,0,0,1,2.946.932,3.262,3.262,0,0,1,1.09,2.621v4.351a4.8,4.8,0,0,0,.4,2.162V0ZM35.208-1.865A2.309,2.309,0,0,0,36.3-2.129a1.737,1.737,0,0,0,.742-.71V-4.564h-1q-2.013,0-2.143,1.392l-.009.158a1.073,1.073,0,0,0,.353.826A1.369,1.369,0,0,0,35.208-1.865Zm12.023-.909a.864.864,0,0,0-.487-.775,5.533,5.533,0,0,0-1.563-.506Q41.6-4.806,41.6-7.1a2.758,2.758,0,0,1,1.109-2.231,4.472,4.472,0,0,1,2.9-.9,4.813,4.813,0,0,1,3.057.9A2.836,2.836,0,0,1,49.81-6.986H47.129a1.3,1.3,0,0,0-.371-.951,1.57,1.57,0,0,0-1.16-.376,1.6,1.6,0,0,0-1.048.306.966.966,0,0,0-.371.779.826.826,0,0,0,.422.719,4.342,4.342,0,0,0,1.424.473,11.632,11.632,0,0,1,1.688.45,2.774,2.774,0,0,1,2.125,2.7A2.618,2.618,0,0,1,48.66-.663a5.083,5.083,0,0,1-3.043.849,5.309,5.309,0,0,1-2.24-.45A3.759,3.759,0,0,1,41.841-1.5a2.867,2.867,0,0,1-.557-1.693h2.542A1.4,1.4,0,0,0,44.355-2.1a2.1,2.1,0,0,0,1.317.38,1.941,1.941,0,0,0,1.164-.292A.909.909,0,0,0,47.231-2.774Z" transform="translate(-5221.927 -12210.16)" fill="#12263f"/>
    <path id="Trazado_151902" data-name="Trazado 151902" d="M3.069,0H1.019V-9.953H3.069ZM6.692-7.4l.062.827A2.6,2.6,0,0,1,8.88-7.533a1.973,1.973,0,0,1,1.962,1.128,2.54,2.54,0,0,1,2.222-1.128,2.206,2.206,0,0,1,1.791.7,3.221,3.221,0,0,1,.588,2.109V0H13.46V-4.728a1.414,1.414,0,0,0-.246-.922,1.089,1.089,0,0,0-.868-.291,1.233,1.233,0,0,0-1.23.85L11.122,0H9.146V-4.721a1.4,1.4,0,0,0-.253-.932,1.1,1.1,0,0,0-.861-.288,1.28,1.28,0,0,0-1.217.7V0H4.84V-7.4ZM23.618-3.63a4.436,4.436,0,0,1-.776,2.738,2.488,2.488,0,0,1-2.1,1.029,2.3,2.3,0,0,1-1.812-.779V2.844H16.96V-7.4h1.832l.068.725a2.322,2.322,0,0,1,1.873-.861,2.5,2.5,0,0,1,2.126,1.012,4.556,4.556,0,0,1,.759,2.789ZM21.643-3.78a2.927,2.927,0,0,0-.366-1.6,1.19,1.19,0,0,0-1.063-.562,1.293,1.293,0,0,0-1.278.713V-2.19a1.315,1.315,0,0,0,1.292.734Q21.643-1.456,21.643-3.78ZM29.271-.752a2.477,2.477,0,0,1-2.023.889,2.337,2.337,0,0,1-1.815-.684,2.918,2.918,0,0,1-.639-2V-7.4H26.77v4.784q0,1.157,1.053,1.157a1.426,1.426,0,0,0,1.381-.7V-7.4h1.982V0H29.326ZM36.08.137a3.631,3.631,0,0,1-2.649-1,3.548,3.548,0,0,1-1.022-2.659v-.191A4.468,4.468,0,0,1,32.84-5.7a3.161,3.161,0,0,1,1.22-1.354,3.425,3.425,0,0,1,1.8-.475,3.07,3.07,0,0,1,2.389.957,3.889,3.889,0,0,1,.872,2.714v.807h-4.71a1.835,1.835,0,0,0,.578,1.162,1.746,1.746,0,0,0,1.22.438,2.132,2.132,0,0,0,1.784-.827L38.965-1.2a2.966,2.966,0,0,1-1.2.981A3.947,3.947,0,0,1,36.08.137ZM35.854-5.94a1.234,1.234,0,0,0-.954.4,2.062,2.062,0,0,0-.468,1.14h2.748V-4.56a1.471,1.471,0,0,0-.355-1.02A1.274,1.274,0,0,0,35.854-5.94Zm8.395,3.9a.637.637,0,0,0-.359-.571,4.077,4.077,0,0,0-1.152-.373Q40.1-3.541,40.1-5.229a2.032,2.032,0,0,1,.817-1.644,3.3,3.3,0,0,1,2.136-.66,3.547,3.547,0,0,1,2.252.663,2.09,2.09,0,0,1,.844,1.723H44.174a.956.956,0,0,0-.273-.7,1.157,1.157,0,0,0-.854-.277,1.182,1.182,0,0,0-.772.226A.712.712,0,0,0,42-5.325a.609.609,0,0,0,.311.53,3.2,3.2,0,0,0,1.049.349,8.571,8.571,0,0,1,1.244.332A2.044,2.044,0,0,1,46.17-2.126,1.929,1.929,0,0,1,45.3-.489,3.745,3.745,0,0,1,43.06.137a3.912,3.912,0,0,1-1.651-.332A2.77,2.77,0,0,1,40.277-1.1a2.113,2.113,0,0,1-.41-1.248H41.74a1.031,1.031,0,0,0,.39.807,1.546,1.546,0,0,0,.971.28,1.43,1.43,0,0,0,.858-.215A.67.67,0,0,0,44.249-2.044Zm5.558-7.171V-7.4h1.265v1.449H49.807v3.691a.881.881,0,0,0,.157.588.79.79,0,0,0,.6.178,3.151,3.151,0,0,0,.581-.048v1.5a4.067,4.067,0,0,1-1.2.178,1.886,1.886,0,0,1-2.119-2.1V-5.947h-1.08V-7.4h1.08V-9.215Zm1.853,5.448a4.387,4.387,0,0,1,.424-1.962A3.1,3.1,0,0,1,53.3-7.062a3.56,3.56,0,0,1,1.849-.472,3.368,3.368,0,0,1,2.444.916,3.676,3.676,0,0,1,1.056,2.488l.014.506a3.866,3.866,0,0,1-.95,2.731A3.3,3.3,0,0,1,55.166.137,3.319,3.319,0,0,1,52.613-.889a3.934,3.934,0,0,1-.954-2.789Zm1.976.14a2.765,2.765,0,0,0,.4,1.612,1.308,1.308,0,0,0,1.135.558,1.311,1.311,0,0,0,1.121-.551,3.025,3.025,0,0,0,.4-1.763,2.737,2.737,0,0,0-.4-1.6,1.311,1.311,0,0,0-1.135-.568,1.29,1.29,0,0,0-1.121.565A3.076,3.076,0,0,0,53.635-3.626ZM63.889-2.044a.637.637,0,0,0-.359-.571,4.077,4.077,0,0,0-1.152-.373q-2.639-.554-2.639-2.242a2.032,2.032,0,0,1,.817-1.644,3.3,3.3,0,0,1,2.136-.66,3.547,3.547,0,0,1,2.252.663,2.09,2.09,0,0,1,.844,1.723H63.813a.956.956,0,0,0-.273-.7,1.157,1.157,0,0,0-.854-.277,1.182,1.182,0,0,0-.772.226.712.712,0,0,0-.273.574.609.609,0,0,0,.311.53A3.2,3.2,0,0,0,63-4.447a8.571,8.571,0,0,1,1.244.332A2.044,2.044,0,0,1,65.81-2.126a1.929,1.929,0,0,1-.868,1.637A3.745,3.745,0,0,1,62.7.137a3.912,3.912,0,0,1-1.651-.332A2.77,2.77,0,0,1,59.917-1.1a2.113,2.113,0,0,1-.41-1.248H61.38a1.031,1.031,0,0,0,.39.807,1.546,1.546,0,0,0,.971.28A1.43,1.43,0,0,0,63.6-1.48.67.67,0,0,0,63.889-2.044Z" transform="translate(-4489.359 -12290.235)" fill="#12263f"/>
    <path id="Trazado_151903" data-name="Trazado 151903" d="M9.064-4.751a6.008,6.008,0,0,1-.52,2.577A3.913,3.913,0,0,1,7.058-.465a4.113,4.113,0,0,1-2.218.6A4.141,4.141,0,0,1,2.632-.458a3.951,3.951,0,0,1-1.5-1.7A5.837,5.837,0,0,1,.588-4.7v-.492a5.977,5.977,0,0,1,.53-2.587,3.945,3.945,0,0,1,1.5-1.716,4.118,4.118,0,0,1,2.211-.6,4.118,4.118,0,0,1,2.211.6,3.945,3.945,0,0,1,1.5,1.716A5.96,5.96,0,0,1,9.064-5.2ZM6.986-5.2a4.188,4.188,0,0,0-.561-2.379,1.827,1.827,0,0,0-1.6-.813,1.827,1.827,0,0,0-1.593.8,4.141,4.141,0,0,0-.567,2.355v.485a4.241,4.241,0,0,0,.561,2.365,1.822,1.822,0,0,0,1.613.841,1.806,1.806,0,0,0,1.586-.81,4.216,4.216,0,0,0,.561-2.362Zm5.8-4.013V-7.4h1.265v1.449H12.79v3.691a.881.881,0,0,0,.157.588.79.79,0,0,0,.6.178,3.151,3.151,0,0,0,.581-.048v1.5a4.067,4.067,0,0,1-1.2.178,1.886,1.886,0,0,1-2.119-2.1V-5.947H9.734V-7.4h1.08V-9.215Zm6.521,3.671A5.367,5.367,0,0,0,18.6-5.6a1.447,1.447,0,0,0-1.47.759V0H15.155V-7.4h1.866l.055.882a1.831,1.831,0,0,1,1.647-1.019,2.07,2.07,0,0,1,.615.089Zm.4,1.777a4.387,4.387,0,0,1,.424-1.962,3.1,3.1,0,0,1,1.22-1.333A3.56,3.56,0,0,1,23.2-7.533a3.368,3.368,0,0,1,2.444.916A3.676,3.676,0,0,1,26.7-4.129l.014.506a3.866,3.866,0,0,1-.95,2.731A3.3,3.3,0,0,1,23.215.137,3.319,3.319,0,0,1,20.662-.889a3.934,3.934,0,0,1-.954-2.789Zm1.976.14a2.765,2.765,0,0,0,.4,1.612,1.308,1.308,0,0,0,1.135.558,1.311,1.311,0,0,0,1.121-.551,3.025,3.025,0,0,0,.4-1.763,2.737,2.737,0,0,0-.4-1.6A1.311,1.311,0,0,0,23.2-5.94a1.29,1.29,0,0,0-1.121.565A3.076,3.076,0,0,0,21.684-3.626ZM31.938-2.044a.637.637,0,0,0-.359-.571,4.077,4.077,0,0,0-1.152-.373q-2.639-.554-2.639-2.242A2.032,2.032,0,0,1,28.6-6.874a3.3,3.3,0,0,1,2.136-.66,3.547,3.547,0,0,1,2.252.663,2.09,2.09,0,0,1,.844,1.723H31.862a.956.956,0,0,0-.273-.7,1.157,1.157,0,0,0-.854-.277,1.182,1.182,0,0,0-.772.226.712.712,0,0,0-.273.574A.609.609,0,0,0,30-4.8a3.2,3.2,0,0,0,1.049.349,8.571,8.571,0,0,1,1.244.332,2.044,2.044,0,0,1,1.565,1.989A1.929,1.929,0,0,1,32.99-.489a3.745,3.745,0,0,1-2.242.625A3.912,3.912,0,0,1,29.1-.195,2.77,2.77,0,0,1,27.966-1.1a2.113,2.113,0,0,1-.41-1.248h1.873a1.031,1.031,0,0,0,.39.807,1.546,1.546,0,0,0,.971.28,1.43,1.43,0,0,0,.858-.215A.67.67,0,0,0,31.938-2.044Z" transform="translate(-4458.025 -12268.894)" fill="#12263f"/>
    <path id="Trazado_151904" data-name="Trazado 151904" d="M8.381-8.292H5.332V0H3.281V-8.292H.273V-9.953H8.381Zm9.153,3.541a6.008,6.008,0,0,1-.52,2.577A3.913,3.913,0,0,1,15.528-.465a4.113,4.113,0,0,1-2.218.6A4.141,4.141,0,0,1,11.1-.458a3.951,3.951,0,0,1-1.5-1.7,5.837,5.837,0,0,1-.54-2.54v-.492a5.977,5.977,0,0,1,.53-2.587,3.945,3.945,0,0,1,1.5-1.716,4.118,4.118,0,0,1,2.211-.6,4.118,4.118,0,0,1,2.211.6A3.945,3.945,0,0,1,17-7.776a5.96,5.96,0,0,1,.53,2.581ZM15.456-5.2A4.188,4.188,0,0,0,14.9-7.581a1.827,1.827,0,0,0-1.6-.813,1.827,1.827,0,0,0-1.593.8,4.141,4.141,0,0,0-.567,2.355v.485A4.241,4.241,0,0,0,11.7-2.386a1.822,1.822,0,0,0,1.613.841,1.806,1.806,0,0,0,1.586-.81,4.216,4.216,0,0,0,.561-2.362Zm10.479-3.09H22.887V0H20.836V-8.292H17.828V-9.953h8.107ZM31.9-2.051h-3.6L27.624,0H25.443l3.705-9.953h1.9L34.774,0H32.594ZM28.861-3.712H31.35L30.1-7.437Zm8.894,2.064h4.354V0H35.7V-9.953h2.051Z" transform="translate(-4464.694 -12248.292)" fill="#12263f"/>
    <path id="Trazado_151905" data-name="Trazado 151905" d="M2.475-1.073H7.191V0H1.155V-9.953H2.475ZM8.155-3.767a4.369,4.369,0,0,1,.427-1.955,3.187,3.187,0,0,1,1.189-1.34,3.238,3.238,0,0,1,1.74-.472,3.119,3.119,0,0,1,2.444,1.046,4.024,4.024,0,0,1,.933,2.782v.089a4.407,4.407,0,0,1-.414,1.938A3.14,3.14,0,0,1,13.292-.342a3.275,3.275,0,0,1-1.767.479A3.111,3.111,0,0,1,9.088-.909a4,4,0,0,1-.933-2.769Zm1.271.15A3.164,3.164,0,0,0,10-1.641,1.827,1.827,0,0,0,11.525-.9a1.816,1.816,0,0,0,1.531-.755,3.46,3.46,0,0,0,.567-2.116,3.159,3.159,0,0,0-.578-1.972,1.836,1.836,0,0,0-1.535-.755A1.816,1.816,0,0,0,10-5.749,3.434,3.434,0,0,0,9.427-3.616Zm6.747-.144a4.347,4.347,0,0,1,.8-2.751,2.558,2.558,0,0,1,2.119-1.022,2.544,2.544,0,0,1,2.112.957l.062-.82h1.155V-.178a3.009,3.009,0,0,1-.851,2.263,3.141,3.141,0,0,1-2.287.827,3.8,3.8,0,0,1-1.565-.342,2.7,2.7,0,0,1-1.169-.937l.656-.759a2.473,2.473,0,0,0,1.989,1,1.938,1.938,0,0,0,1.439-.52A1.986,1.986,0,0,0,21.15-.1V-.738a2.6,2.6,0,0,1-2.071.875,2.527,2.527,0,0,1-2.1-1.046A4.571,4.571,0,0,1,16.174-3.76Zm1.271.144a3.316,3.316,0,0,0,.513,1.965,1.666,1.666,0,0,0,1.436.714A1.852,1.852,0,0,0,21.15-2.023V-5.4a1.874,1.874,0,0,0-1.743-1.06,1.681,1.681,0,0,0-1.442.718A3.612,3.612,0,0,0,17.445-3.616Zm6.549-.15a4.369,4.369,0,0,1,.427-1.955,3.187,3.187,0,0,1,1.189-1.34,3.238,3.238,0,0,1,1.74-.472,3.119,3.119,0,0,1,2.444,1.046,4.024,4.024,0,0,1,.933,2.782v.089a4.407,4.407,0,0,1-.414,1.938A3.14,3.14,0,0,1,29.131-.342a3.275,3.275,0,0,1-1.767.479A3.111,3.111,0,0,1,24.927-.909a4,4,0,0,1-.933-2.769Zm1.271.15a3.164,3.164,0,0,0,.571,1.976A1.827,1.827,0,0,0,27.364-.9,1.816,1.816,0,0,0,28.9-1.651a3.46,3.46,0,0,0,.567-2.116,3.159,3.159,0,0,0-.578-1.972,1.836,1.836,0,0,0-1.535-.755,1.816,1.816,0,0,0-1.511.745A3.434,3.434,0,0,0,25.266-3.616Z" transform="translate(-5111.685 -12861.416)" fill="#12263f"/>
    <path id="Trazado_151906" data-name="Trazado 151906" d="M18.129,0H13.357L6.3-12.387V0H1.5V-19.906H6.3L13.344-7.52V-19.906h4.785Zm2.242-7.533a8.731,8.731,0,0,1,.861-3.944,6.16,6.16,0,0,1,2.475-2.659,7.453,7.453,0,0,1,3.787-.93,6.8,6.8,0,0,1,5.236,2.058,7.9,7.9,0,0,1,1.914,5.6v.164a7.661,7.661,0,0,1-1.921,5.489,6.82,6.82,0,0,1-5.2,2.03A6.9,6.9,0,0,1,22.449-1.62a7.406,7.406,0,0,1-2.064-5.134Zm4.607.287a5.5,5.5,0,0,0,.643,3.008,2.141,2.141,0,0,0,1.9.957q2.461,0,2.516-3.787v-.465q0-3.979-2.543-3.979-2.311,0-2.5,3.432Zm16.051-7.547.15,1.736a5.086,5.086,0,0,1,4.225-2.01,3.745,3.745,0,0,1,3.787,2.229,4.923,4.923,0,0,1,4.348-2.229q4.5,0,4.621,5.441V0H53.539V-9.338a2.82,2.82,0,0,0-.383-1.654,1.63,1.63,0,0,0-1.395-.52,2.183,2.183,0,0,0-2.037,1.217l.014.191V0H45.117V-9.311a2.964,2.964,0,0,0-.369-1.682,1.625,1.625,0,0,0-1.408-.52,2.21,2.21,0,0,0-2.023,1.217V0H36.709V-14.793Zm33.5,7.52a9.016,9.016,0,0,1-1.5,5.592A5.037,5.037,0,0,1,68.783.273a4.371,4.371,0,0,1-3.637-1.791L64.955,0H60.826V-21h4.607v7.4a4.218,4.218,0,0,1,3.322-1.463,5.039,5.039,0,0,1,4.266,1.982,9.063,9.063,0,0,1,1.5,5.578ZM69.9-7.567a6.014,6.014,0,0,0-.567-3.037,1.913,1.913,0,0,0-1.743-.908,2.206,2.206,0,0,0-2.16,1.188v5.869a2.218,2.218,0,0,0,2.188,1.174,1.957,1.957,0,0,0,2.064-1.583A11.37,11.37,0,0,0,69.9-7.567Zm15.6-3.056-1.518-.109q-2.174,0-2.789,1.367V0H76.59V-14.793h4.32l.15,1.9a3.568,3.568,0,0,1,3.24-2.174,4.493,4.493,0,0,1,1.285.164ZM94.063.273a7.6,7.6,0,0,1-5.51-2.03,7.011,7.011,0,0,1-2.105-5.284v-.383a9.085,9.085,0,0,1,.841-4.006,6.152,6.152,0,0,1,2.454-2.687,7.409,7.409,0,0,1,3.828-.95,6.4,6.4,0,0,1,4.922,1.935,7.6,7.6,0,0,1,1.8,5.394v1.791h-9.16a3.321,3.321,0,0,0,1.08,1.955,3.214,3.214,0,0,0,2.16.711,4.141,4.141,0,0,0,3.418-1.531L99.9-2.324A5.886,5.886,0,0,1,97.46-.431,8.247,8.247,0,0,1,94.063.273Zm-.52-11.785q-2.023,0-2.406,2.68h4.648v-.355a2.282,2.282,0,0,0-.561-1.716A2.231,2.231,0,0,0,93.543-11.512ZM116.279.273a7.6,7.6,0,0,1-5.51-2.03,7.011,7.011,0,0,1-2.105-5.284v-.383a9.085,9.085,0,0,1,.841-4.006,6.152,6.152,0,0,1,2.454-2.687,7.409,7.409,0,0,1,3.828-.95,6.4,6.4,0,0,1,4.922,1.935,7.6,7.6,0,0,1,1.8,5.394v1.791h-9.16a3.321,3.321,0,0,0,1.08,1.955,3.214,3.214,0,0,0,2.16.711,4.141,4.141,0,0,0,3.418-1.531l2.105,2.488a5.886,5.886,0,0,1-2.44,1.894A8.247,8.247,0,0,1,116.279.273Zm-.52-11.785q-2.023,0-2.406,2.68H118v-.355a2.282,2.282,0,0,0-.561-1.716A2.231,2.231,0,0,0,115.76-11.512Zm12.961-3.281.15,1.736a5.086,5.086,0,0,1,4.225-2.01,3.745,3.745,0,0,1,3.787,2.229,4.923,4.923,0,0,1,4.348-2.229q4.5,0,4.621,5.441V0H141.23V-9.338a2.82,2.82,0,0,0-.383-1.654,1.63,1.63,0,0,0-1.395-.52,2.183,2.183,0,0,0-2.037,1.217l.014.191V0h-4.621V-9.311a2.964,2.964,0,0,0-.369-1.682,1.625,1.625,0,0,0-1.408-.52,2.21,2.21,0,0,0-2.023,1.217V0H124.4V-14.793Zm33.5,7.506a8.921,8.921,0,0,1-1.552,5.5,4.975,4.975,0,0,1-4.19,2.058,4.265,4.265,0,0,1-3.35-1.49v6.9h-4.607v-20.48h4.307l.137,1.367a4.265,4.265,0,0,1,3.486-1.641A5.015,5.015,0,0,1,160.7-13.05a9.031,9.031,0,0,1,1.518,5.544Zm-4.607-.287q0-3.937-2.3-3.937a2.168,2.168,0,0,0-2.187,1.176v5.824a2.239,2.239,0,0,0,2.215,1.23q2.2,0,2.27-3.8ZM173.2-10.623l-1.518-.109q-2.174,0-2.789,1.367V0h-4.607V-14.793h4.32l.15,1.9a3.568,3.568,0,0,1,3.24-2.174,4.493,4.493,0,0,1,1.285.164Zm8.559,10.9a7.6,7.6,0,0,1-5.51-2.03,7.011,7.011,0,0,1-2.105-5.284v-.383a9.085,9.085,0,0,1,.841-4.006,6.153,6.153,0,0,1,2.454-2.687,7.409,7.409,0,0,1,3.828-.95,6.4,6.4,0,0,1,4.922,1.935,7.6,7.6,0,0,1,1.8,5.394v1.791h-9.16a3.321,3.321,0,0,0,1.08,1.955,3.214,3.214,0,0,0,2.16.711,4.141,4.141,0,0,0,3.418-1.531l2.105,2.488a5.886,5.886,0,0,1-2.44,1.894A8.247,8.247,0,0,1,181.754.273Zm-.52-11.785q-2.023,0-2.406,2.68h4.648v-.355a2.282,2.282,0,0,0-.561-1.716A2.231,2.231,0,0,0,181.234-11.512Zm16.352,7.355a1.064,1.064,0,0,0-.615-.943,9.358,9.358,0,0,0-2.338-.738,10.661,10.661,0,0,1-2.844-1,4.763,4.763,0,0,1-1.709-1.511,3.608,3.608,0,0,1-.588-2.037,4.089,4.089,0,0,1,1.682-3.356,6.927,6.927,0,0,1,4.4-1.319,7.675,7.675,0,0,1,4.7,1.326,4.147,4.147,0,0,1,1.777,3.486h-4.621q0-1.777-1.873-1.777a1.857,1.857,0,0,0-1.217.4,1.249,1.249,0,0,0-.492,1,1.146,1.146,0,0,0,.6,1A5.684,5.684,0,0,0,196.376-9a16.6,16.6,0,0,1,2.317.588q3.336,1.148,3.336,4.115A3.874,3.874,0,0,1,200.231-1,7.884,7.884,0,0,1,195.576.273a8.046,8.046,0,0,1-3.391-.684,5.67,5.67,0,0,1-2.324-1.859,4.21,4.21,0,0,1-.834-2.475h4.307a1.781,1.781,0,0,0,.684,1.5,2.812,2.812,0,0,0,1.682.472,2.212,2.212,0,0,0,1.415-.383A1.225,1.225,0,0,0,197.586-4.156ZM212.516,0a5.2,5.2,0,0,1-.437-1.326,4.284,4.284,0,0,1-3.555,1.6,5.249,5.249,0,0,1-3.555-1.265,4.025,4.025,0,0,1-1.463-3.179,4.137,4.137,0,0,1,1.777-3.637,9.055,9.055,0,0,1,5.168-1.23h1.422V-9.82q0-2.047-1.764-2.047a1.442,1.442,0,0,0-1.641,1.621h-4.607a4.13,4.13,0,0,1,1.825-3.482,7.67,7.67,0,0,1,4.655-1.338,6.725,6.725,0,0,1,4.471,1.381A4.8,4.8,0,0,1,216.494-9.9V-3.35a6.707,6.707,0,0,0,.629,3.117V0Zm-2.885-3.008a2.57,2.57,0,0,0,1.429-.369,2.314,2.314,0,0,0,.813-.834V-6.576h-1.34q-2.406,0-2.406,2.16a1.319,1.319,0,0,0,.424,1.019A1.534,1.534,0,0,0,209.631-3.008Z" transform="translate(-5054.466 -12854.436)" fill="#12263f"/>
    <path id="Trazado_151907" data-name="Trazado 151907" d="M17.609-6.74a7.27,7.27,0,0,1-1.121,3.671A6.766,6.766,0,0,1,13.61-.6,9.8,9.8,0,0,1,9.379.273,7.817,7.817,0,0,1,3.2-2.283Q.943-4.84.943-9.5v-.984a12.049,12.049,0,0,1,1.019-5.12A7.718,7.718,0,0,1,4.895-19a8.182,8.182,0,0,1,4.43-1.2,8.58,8.58,0,0,1,5.824,1.907,7.536,7.536,0,0,1,2.5,5.257H12.865a3.565,3.565,0,0,0-.916-2.611,3.767,3.767,0,0,0-2.625-.793A2.867,2.867,0,0,0,6.7-15.094a8.611,8.611,0,0,0-.875,4.279v1.408a9.529,9.529,0,0,0,.8,4.553A2.927,2.927,0,0,0,9.379-3.486a3.685,3.685,0,0,0,2.529-.779,3.308,3.308,0,0,0,.93-2.475ZM24.527,0H19.906V-21h4.621Zm7.7,0H27.6V-14.793h4.621ZM27.33-18.621a2.075,2.075,0,0,1,.711-1.623,2.672,2.672,0,0,1,1.846-.633,2.672,2.672,0,0,1,1.846.633,2.075,2.075,0,0,1,.711,1.623A2.075,2.075,0,0,1,31.732-17a2.672,2.672,0,0,1-1.846.633A2.672,2.672,0,0,1,28.041-17,2.075,2.075,0,0,1,27.33-18.621ZM42.219.273a7.6,7.6,0,0,1-5.51-2.03A7.011,7.011,0,0,1,34.6-7.041v-.383a9.085,9.085,0,0,1,.841-4.006A6.152,6.152,0,0,1,37.9-14.116a7.409,7.409,0,0,1,3.828-.95,6.4,6.4,0,0,1,4.922,1.935,7.6,7.6,0,0,1,1.8,5.394v1.791h-9.16a3.321,3.321,0,0,0,1.08,1.955,3.214,3.214,0,0,0,2.16.711,4.141,4.141,0,0,0,3.418-1.531l2.105,2.488a5.886,5.886,0,0,1-2.44,1.894A8.247,8.247,0,0,1,42.219.273ZM41.7-11.512q-2.023,0-2.406,2.68h4.648v-.355a2.282,2.282,0,0,0-.561-1.716A2.231,2.231,0,0,0,41.7-11.512Zm12.838-3.281.15,1.736a5.017,5.017,0,0,1,4.225-2.01,4.221,4.221,0,0,1,3.452,1.381,6.574,6.574,0,0,1,1.183,4.156V0H58.926V-9.338a2.5,2.5,0,0,0-.451-1.647,2.087,2.087,0,0,0-1.641-.526,2.2,2.2,0,0,0-2.01,1.066V0H50.217V-14.793Zm16.926-3.678v3.678H73.9v3.2H71.463v6.768a1.728,1.728,0,0,0,.3,1.162,1.613,1.613,0,0,0,1.189.328A6.759,6.759,0,0,0,74.1-3.418V-.123a8.5,8.5,0,0,1-2.6.4A4.827,4.827,0,0,1,67.99-.848a4.6,4.6,0,0,1-1.135-3.4v-7.342H64.969v-3.2h1.887v-3.678ZM82.865.273a7.6,7.6,0,0,1-5.51-2.03A7.011,7.011,0,0,1,75.25-7.041v-.383a9.085,9.085,0,0,1,.841-4.006,6.152,6.152,0,0,1,2.454-2.687,7.409,7.409,0,0,1,3.828-.95,6.4,6.4,0,0,1,4.922,1.935,7.6,7.6,0,0,1,1.8,5.394v1.791h-9.16a3.321,3.321,0,0,0,1.08,1.955,3.214,3.214,0,0,0,2.16.711A4.141,4.141,0,0,0,86.6-4.812L88.7-2.324a5.886,5.886,0,0,1-2.44,1.894A8.247,8.247,0,0,1,82.865.273Zm-.52-11.785q-2.023,0-2.406,2.68h4.648v-.355a2.282,2.282,0,0,0-.561-1.716A2.231,2.231,0,0,0,82.346-11.512Z" transform="translate(-5018.459 -12655.009)" fill="#12263f"/>
    <path id="Trazado_151908" data-name="Trazado 151908" d="M0,0H688.826V113.725H0Z" transform="translate(-5226.063 -12204.534)" fill="none" stroke="#12263f" stroke-width="1"/>
    <path id="Trazado_151909" data-name="Trazado 151909" d="M0,0H144.405V58.223H0Z" transform="translate(-4410.017 -12782.616)" fill="none" stroke="#12263f" stroke-width="1"/>
    <path id="Trazado_151910" data-name="Trazado 151910" d="M0,0H143.6" transform="translate(-4409.208 -12764.004)" fill="none" stroke="#12263f" stroke-width="1"/>
    <path id="Trazado_151911" data-name="Trazado 151911" d="M0,0H144.405" transform="translate(-4410.017 -12743.287)" fill="none" stroke="#12263f" stroke-width="1"/>
    <path id="Trazado_151912" data-name="Trazado 151912" d="M0,0H144.405V82.544H0Z" transform="translate(-4410.017 -12323.878)" fill="none" stroke="#12263f" stroke-width="1"/>
    <path id="Trazado_151913" data-name="Trazado 151913" d="M0,0H143.6" transform="translate(-4409.208 -12305.266)" fill="none" stroke="#12263f" stroke-width="1"/>
    <path id="Trazado_151914" data-name="Trazado 151914" d="M0,0H144.405" transform="translate(-4410.017 -12284.549)" fill="none" stroke="#12263f" stroke-width="1"/>
    <path id="Trazado_151915" data-name="Trazado 151915" d="M0,0H143.6" transform="translate(-4409.208 -12262.355)" fill="none" stroke="#12263f" stroke-width="1"/>
    <path id="Trazado_151916" data-name="Trazado 151916" d="M0,0V181.3" transform="translate(-5114.498 -12518.167)" fill="none" stroke="#12263f" stroke-width="1"/>
    <path id="Trazado_151917" data-name="Trazado 151917" d="M0,0V181.3" transform="translate(-4911.46 -12518.167)" fill="none" stroke="#12263f" stroke-width="1"/>
    <path id="Trazado_151918" data-name="Trazado 151918" d="M0,0V181.3" transform="translate(-4754.97 -12518.167)" fill="none" stroke="#12263f" stroke-width="1"/>
    <path id="Trazado_151919" data-name="Trazado 151919" d="M0,0V181.3" transform="translate(-4572.507 -12518.167)" fill="none" stroke="#12263f" stroke-width="1"/>
    <path id="Trazado_151920" data-name="Trazado 151920" d="M0,0V181.3" transform="translate(-4409.208 -12518.167)" fill="none" stroke="#12263f" stroke-width="1"/>
    <path id="Trazado_151921" data-name="Trazado 151921" d="M0,0H959.462V181.3H0Z" transform="translate(-5226.063 -12518.167)" fill="none" stroke="#12263f" stroke-width="1"/>
    <path id="Trazado_151922" data-name="Trazado 151922" d="M0,0H959.462" transform="translate(-5226.063 -12480.304)" fill="none" stroke="#12263f" stroke-width="1"/>
    <path id="Trazado_151923" data-name="Trazado 151923" d="M0,0H959.462" transform="translate(-5226.063 -12456.021)" fill="none" stroke="#12263f" stroke-width="1"/>
    <path id="Trazado_151924" data-name="Trazado 151924" d="M0,0H959.462" transform="translate(-5226.063 -12432.624)" fill="none" stroke="#12263f" stroke-width="1"/>
    <path id="Trazado_151925" data-name="Trazado 151925" d="M0,0H959.462" transform="translate(-5226.063 -12409.227)" fill="none" stroke="#12263f" stroke-width="1"/>
    <path id="Trazado_151926" data-name="Trazado 151926" d="M0,0H959.462" transform="translate(-5226.063 -12385.829)" fill="none" stroke="#12263f" stroke-width="1"/>
    <path id="Trazado_151927" data-name="Trazado 151927" d="M0,0H959.462" transform="translate(-5226.063 -12362.432)" fill="none" stroke="#12263f" stroke-width="1"/>
    <path id="Trazado_151928" data-name="Trazado 151928" d="M1.155,0V-9.953h2.81a4.523,4.523,0,0,1,2.3.574A3.884,3.884,0,0,1,7.8-7.745a5.318,5.318,0,0,1,.55,2.434v.636A5.336,5.336,0,0,1,7.81-2.208,3.823,3.823,0,0,1,6.258-.581,4.811,4.811,0,0,1,3.91,0ZM2.468-8.88v7.807H3.849A3,3,0,0,0,6.21-2.017a3.9,3.9,0,0,0,.844-2.689v-.582a3.963,3.963,0,0,0-.8-2.637A2.834,2.834,0,0,0,4-8.88ZM11.512,0H10.247V-7.4h1.265ZM10.145-9.358a.755.755,0,0,1,.188-.52.706.706,0,0,1,.557-.212.717.717,0,0,1,.561.212.747.747,0,0,1,.191.52.722.722,0,0,1-.191.513.73.73,0,0,1-.561.205.718.718,0,0,1-.557-.205A.73.73,0,0,1,10.145-9.358Zm6.966,3.1a3.79,3.79,0,0,0-.622-.048A1.667,1.667,0,0,0,14.8-5.25V0H13.535V-7.4h1.23l.021.854a1.969,1.969,0,0,1,1.764-.991,1.292,1.292,0,0,1,.561.1Zm4.1,6.4a3.232,3.232,0,0,1-2.447-.988,3.666,3.666,0,0,1-.943-2.642v-.232a4.438,4.438,0,0,1,.42-1.965,3.28,3.28,0,0,1,1.176-1.354,2.956,2.956,0,0,1,1.637-.489,2.77,2.77,0,0,1,2.242.95,4.114,4.114,0,0,1,.8,2.721v.526H19.086a2.629,2.629,0,0,0,.639,1.767A2.009,2.009,0,0,0,21.28-.9a2.2,2.2,0,0,0,1.135-.273,2.851,2.851,0,0,0,.813-.725l.772.6A3.106,3.106,0,0,1,21.212.137Zm-.157-6.631a1.687,1.687,0,0,0-1.285.557,2.708,2.708,0,0,0-.643,1.562h3.705v-.1a2.409,2.409,0,0,0-.52-1.494A1.588,1.588,0,0,0,21.055-6.494ZM28.526-.9a1.822,1.822,0,0,0,1.183-.41,1.443,1.443,0,0,0,.561-1.025h1.2a2.293,2.293,0,0,1-.437,1.21,2.881,2.881,0,0,1-1.077.916,3.107,3.107,0,0,1-1.425.342,3.047,3.047,0,0,1-2.4-1.008,4.016,4.016,0,0,1-.892-2.758v-.212a4.453,4.453,0,0,1,.4-1.921,3.02,3.02,0,0,1,1.138-1.306,3.233,3.233,0,0,1,1.753-.465,2.966,2.966,0,0,1,2.068.745,2.663,2.663,0,0,1,.878,1.935h-1.2a1.743,1.743,0,0,0-.543-1.179,1.691,1.691,0,0,0-1.207-.461,1.77,1.77,0,0,0-1.494.694,3.259,3.259,0,0,0-.53,2.006v.239a3.194,3.194,0,0,0,.526,1.969A1.779,1.779,0,0,0,28.526-.9Zm7.328,0a1.822,1.822,0,0,0,1.183-.41A1.443,1.443,0,0,0,37.6-2.331h1.2a2.293,2.293,0,0,1-.437,1.21,2.881,2.881,0,0,1-1.077.916,3.107,3.107,0,0,1-1.425.342,3.047,3.047,0,0,1-2.4-1.008A4.016,4.016,0,0,1,32.56-3.63v-.212a4.453,4.453,0,0,1,.4-1.921,3.02,3.02,0,0,1,1.138-1.306,3.233,3.233,0,0,1,1.753-.465,2.966,2.966,0,0,1,2.068.745,2.663,2.663,0,0,1,.878,1.935H37.6a1.743,1.743,0,0,0-.543-1.179,1.691,1.691,0,0,0-1.207-.461,1.77,1.77,0,0,0-1.494.694,3.259,3.259,0,0,0-.53,2.006v.239a3.194,3.194,0,0,0,.526,1.969A1.779,1.779,0,0,0,35.854-.9ZM41.59,0H40.325V-7.4H41.59ZM40.223-9.358a.755.755,0,0,1,.188-.52.706.706,0,0,1,.557-.212.717.717,0,0,1,.561.212.747.747,0,0,1,.191.52.722.722,0,0,1-.191.513.73.73,0,0,1-.561.205.718.718,0,0,1-.557-.205A.73.73,0,0,1,40.223-9.358Zm3.056,5.592a4.369,4.369,0,0,1,.427-1.955A3.187,3.187,0,0,1,44.9-7.062a3.238,3.238,0,0,1,1.74-.472,3.119,3.119,0,0,1,2.444,1.046,4.024,4.024,0,0,1,.933,2.782v.089A4.407,4.407,0,0,1,49.6-1.678,3.14,3.14,0,0,1,48.416-.342a3.275,3.275,0,0,1-1.767.479A3.111,3.111,0,0,1,44.211-.909a4,4,0,0,1-.933-2.769Zm1.271.15a3.164,3.164,0,0,0,.571,1.976A1.827,1.827,0,0,0,46.648-.9a1.816,1.816,0,0,0,1.531-.755,3.46,3.46,0,0,0,.567-2.116,3.159,3.159,0,0,0-.578-1.972,1.836,1.836,0,0,0-1.535-.755,1.816,1.816,0,0,0-1.511.745A3.434,3.434,0,0,0,44.55-3.616Zm2.659-6.87H48.74l-1.832,2.01-1.019,0ZM52.794-7.4l.041.93A2.7,2.7,0,0,1,55.05-7.533q2.345,0,2.365,2.646V0H56.15V-4.895a1.7,1.7,0,0,0-.366-1.183,1.466,1.466,0,0,0-1.118-.383,1.825,1.825,0,0,0-1.08.328,2.228,2.228,0,0,0-.725.861V0H51.6V-7.4Z" transform="translate(-5221.928 -12815.846)" fill="#12263f"/>
    <path id="Trazado_151929" data-name="Trazado 151929" d="M8.477-3.158A3.662,3.662,0,0,1,7.311-.721,3.82,3.82,0,0,1,4.7.137,3.507,3.507,0,0,1,1.876-1.128,5.088,5.088,0,0,1,.813-4.512v-.957a5.671,5.671,0,0,1,.5-2.44,3.7,3.7,0,0,1,1.4-1.617,3.911,3.911,0,0,1,2.105-.564A3.6,3.6,0,0,1,7.362-9.2,3.706,3.706,0,0,1,8.477-6.754H7.157a2.86,2.86,0,0,0-.742-1.728,2.244,2.244,0,0,0-1.6-.535,2.348,2.348,0,0,0-1.972.93,4.271,4.271,0,0,0-.714,2.648v.965A4.391,4.391,0,0,0,2.81-1.894,2.187,2.187,0,0,0,4.7-.937a2.526,2.526,0,0,0,1.678-.5,2.75,2.75,0,0,0,.776-1.726ZM11.443,0H10.179V-7.4h1.265ZM10.076-9.358a.755.755,0,0,1,.188-.52.706.706,0,0,1,.557-.212.717.717,0,0,1,.561.212.747.747,0,0,1,.191.52.722.722,0,0,1-.191.513.73.73,0,0,1-.561.205.718.718,0,0,1-.557-.205A.73.73,0,0,1,10.076-9.358ZM18.033-.731a2.686,2.686,0,0,1-2.167.868,2.3,2.3,0,0,1-1.8-.687,2.974,2.974,0,0,1-.625-2.034V-7.4H14.7v4.778q0,1.682,1.367,1.682A1.893,1.893,0,0,0,18-2.017V-7.4h1.265V0h-1.2ZM20.877-3.76A4.333,4.333,0,0,1,21.684-6.5,2.551,2.551,0,0,1,23.8-7.533a2.565,2.565,0,0,1,2.058.889V-10.5h1.265V0H25.956l-.062-.793a2.575,2.575,0,0,1-2.112.93,2.526,2.526,0,0,1-2.1-1.053,4.382,4.382,0,0,1-.81-2.748Zm1.265.144a3.281,3.281,0,0,0,.52,1.969A1.68,1.68,0,0,0,24.1-.937a1.845,1.845,0,0,0,1.757-1.08v-3.4A1.859,1.859,0,0,0,24.11-6.46a1.687,1.687,0,0,0-1.449.718A3.612,3.612,0,0,0,22.142-3.616ZM33.646,0a2.657,2.657,0,0,1-.178-.779,2.822,2.822,0,0,1-2.105.916,2.611,2.611,0,0,1-1.794-.619,2,2,0,0,1-.7-1.569,2.091,2.091,0,0,1,.878-1.794,4.142,4.142,0,0,1,2.471-.639h1.23v-.581a1.42,1.42,0,0,0-.4-1.056,1.593,1.593,0,0,0-1.169-.393,1.844,1.844,0,0,0-1.135.342,1.007,1.007,0,0,0-.458.827H29.019a1.745,1.745,0,0,1,.393-1.07,2.683,2.683,0,0,1,1.066-.817,3.588,3.588,0,0,1,1.48-.3,2.924,2.924,0,0,1,2,.639,2.306,2.306,0,0,1,.752,1.76v3.4a4.162,4.162,0,0,0,.26,1.62V0Zm-2.1-.964a2.223,2.223,0,0,0,1.128-.308,1.861,1.861,0,0,0,.772-.8V-3.589h-.991q-2.324,0-2.324,1.36a1.151,1.151,0,0,0,.4.93A1.524,1.524,0,0,0,31.548-.964Zm4.84-2.8A4.333,4.333,0,0,1,37.194-6.5a2.551,2.551,0,0,1,2.112-1.036,2.565,2.565,0,0,1,2.058.889V-10.5h1.265V0H41.467l-.062-.793a2.575,2.575,0,0,1-2.112.93A2.526,2.526,0,0,1,37.2-.916a4.382,4.382,0,0,1-.81-2.748Zm1.265.144a3.281,3.281,0,0,0,.52,1.969,1.68,1.68,0,0,0,1.436.711,1.845,1.845,0,0,0,1.757-1.08v-3.4A1.859,1.859,0,0,0,39.621-6.46a1.687,1.687,0,0,0-1.449.718A3.612,3.612,0,0,0,37.652-3.616Z" transform="translate(-5221.928 -12793.843)" fill="#12263f"/>
    <path id="Trazado_151930" data-name="Trazado 151930" d="M4.088-4.437A6.172,6.172,0,0,1,1.63-5.629,2.279,2.279,0,0,1,.861-7.376,2.408,2.408,0,0,1,1.8-9.321a3.736,3.736,0,0,1,2.444-.769,4.078,4.078,0,0,1,1.829.4A3.007,3.007,0,0,1,7.318-8.6a2.8,2.8,0,0,1,.441,1.524H6.439A1.82,1.82,0,0,0,5.865-8.5a2.335,2.335,0,0,0-1.62-.518,2.391,2.391,0,0,0-1.514.428A1.428,1.428,0,0,0,2.188-7.4,1.285,1.285,0,0,0,2.7-6.37,5.062,5.062,0,0,0,4.46-5.6,8.152,8.152,0,0,1,6.4-4.83a2.946,2.946,0,0,1,1.039.981,2.5,2.5,0,0,1,.338,1.319A2.326,2.326,0,0,1,6.836-.591,4.022,4.022,0,0,1,4.313.137,4.678,4.678,0,0,1,2.4-.256,3.221,3.221,0,0,1,1.029-1.333,2.627,2.627,0,0,1,.547-2.885H1.866a1.714,1.714,0,0,0,.667,1.425,2.806,2.806,0,0,0,1.781.523A2.58,2.58,0,0,0,5.906-1.36,1.377,1.377,0,0,0,6.46-2.516a1.351,1.351,0,0,0-.513-1.131A5.911,5.911,0,0,0,4.088-4.437ZM10.637,0H9.372V-7.4h1.265ZM9.27-9.358a.755.755,0,0,1,.188-.52.706.706,0,0,1,.557-.212.717.717,0,0,1,.561.212.747.747,0,0,1,.191.52.722.722,0,0,1-.191.513.73.73,0,0,1-.561.205.718.718,0,0,1-.557-.205A.73.73,0,0,1,9.27-9.358Zm5.106.171V-7.4h1.381v.978H14.376v4.593a1.027,1.027,0,0,0,.185.667.777.777,0,0,0,.629.222,3.062,3.062,0,0,0,.6-.082V0a3.688,3.688,0,0,1-.971.136,1.575,1.575,0,0,1-1.278-.513,2.2,2.2,0,0,1-.431-1.456V-6.419H11.765V-7.4h1.347V-9.187ZM18.607,0H17.343V-7.4h1.265ZM17.24-9.358a.755.755,0,0,1,.188-.52.706.706,0,0,1,.557-.212.717.717,0,0,1,.561.212.747.747,0,0,1,.191.52.722.722,0,0,1-.191.513.73.73,0,0,1-.561.205.718.718,0,0,1-.557-.205A.73.73,0,0,1,17.24-9.358ZM20.3-3.767a4.369,4.369,0,0,1,.427-1.955,3.187,3.187,0,0,1,1.189-1.34,3.238,3.238,0,0,1,1.74-.472A3.119,3.119,0,0,1,26.1-6.487a4.024,4.024,0,0,1,.933,2.782v.089a4.407,4.407,0,0,1-.414,1.938A3.14,3.14,0,0,1,25.433-.342a3.275,3.275,0,0,1-1.767.479A3.111,3.111,0,0,1,21.229-.909,4,4,0,0,1,20.3-3.678Zm1.271.15a3.164,3.164,0,0,0,.571,1.976A1.827,1.827,0,0,0,23.666-.9,1.816,1.816,0,0,0,25.2-1.651a3.46,3.46,0,0,0,.567-2.116,3.159,3.159,0,0,0-.578-1.972,1.836,1.836,0,0,0-1.535-.755,1.816,1.816,0,0,0-1.511.745A3.434,3.434,0,0,0,21.567-3.616ZM38.63-1.743,40.052-7.4h1.265L39.163,0H38.138l-1.8-5.605L34.59,0H33.564L31.418-7.4h1.258l1.456,5.537L35.854-7.4h1.019ZM45.671.137a3.232,3.232,0,0,1-2.447-.988,3.666,3.666,0,0,1-.943-2.642v-.232a4.438,4.438,0,0,1,.42-1.965,3.28,3.28,0,0,1,1.176-1.354,2.956,2.956,0,0,1,1.637-.489,2.77,2.77,0,0,1,2.242.95,4.114,4.114,0,0,1,.8,2.721v.526H43.545a2.629,2.629,0,0,0,.639,1.767A2.009,2.009,0,0,0,45.739-.9a2.2,2.2,0,0,0,1.135-.273,2.851,2.851,0,0,0,.813-.725l.772.6A3.106,3.106,0,0,1,45.671.137Zm-.157-6.631a1.687,1.687,0,0,0-1.285.557,2.708,2.708,0,0,0-.643,1.562h3.705v-.1a2.409,2.409,0,0,0-.52-1.494A1.588,1.588,0,0,0,45.514-6.494ZM56.28-3.616A4.4,4.4,0,0,1,55.5-.892,2.49,2.49,0,0,1,53.409.137a2.578,2.578,0,0,1-2.167-.991L51.181,0H50.019V-10.5h1.265v3.917a2.564,2.564,0,0,1,2.112-.95,2.505,2.505,0,0,1,2.116,1.019,4.53,4.53,0,0,1,.769,2.789ZM55.016-3.76a3.417,3.417,0,0,0-.5-2,1.652,1.652,0,0,0-1.436-.7,1.857,1.857,0,0,0-1.8,1.162v3.2A1.909,1.909,0,0,0,53.095-.937a1.643,1.643,0,0,0,1.415-.7A3.634,3.634,0,0,0,55.016-3.76Z" transform="translate(-5221.928 -12771.84)" fill="#12263f"/>
    <path id="Trazado_151931" data-name="Trazado 151931" d="M8.032-8.88h-3.2V0H3.527V-8.88H.335V-9.953h7.7ZM11.7.137A3.232,3.232,0,0,1,9.256-.851a3.666,3.666,0,0,1-.943-2.642v-.232a4.438,4.438,0,0,1,.42-1.965A3.28,3.28,0,0,1,9.909-7.044a2.956,2.956,0,0,1,1.637-.489,2.77,2.77,0,0,1,2.242.95,4.114,4.114,0,0,1,.8,2.721v.526H9.577a2.629,2.629,0,0,0,.639,1.767A2.009,2.009,0,0,0,11.771-.9a2.2,2.2,0,0,0,1.135-.273,2.851,2.851,0,0,0,.813-.725l.772.6A3.106,3.106,0,0,1,11.7.137Zm-.157-6.631a1.687,1.687,0,0,0-1.285.557,2.708,2.708,0,0,0-.643,1.562h3.705v-.1a2.409,2.409,0,0,0-.52-1.494A1.588,1.588,0,0,0,11.546-6.494ZM17.425,0H16.16V-10.5h1.265Zm5.093.137A3.232,3.232,0,0,1,20.07-.851a3.666,3.666,0,0,1-.943-2.642v-.232a4.438,4.438,0,0,1,.42-1.965,3.28,3.28,0,0,1,1.176-1.354,2.956,2.956,0,0,1,1.637-.489,2.77,2.77,0,0,1,2.242.95,4.114,4.114,0,0,1,.8,2.721v.526H20.392a2.629,2.629,0,0,0,.639,1.767A2.009,2.009,0,0,0,22.586-.9a2.2,2.2,0,0,0,1.135-.273,2.851,2.851,0,0,0,.813-.725l.772.6A3.106,3.106,0,0,1,22.518.137ZM22.36-6.494a1.687,1.687,0,0,0-1.285.557,2.708,2.708,0,0,0-.643,1.562h3.705v-.1a2.409,2.409,0,0,0-.52-1.494A1.588,1.588,0,0,0,22.36-6.494Zm.615-3.992h1.531l-1.832,2.01-1.019,0ZM27.487,0V-6.419H26.318V-7.4h1.169v-.759a2.519,2.519,0,0,1,.636-1.839,2.4,2.4,0,0,1,1.8-.649,3.339,3.339,0,0,1,.868.115l-.068,1.019a3.632,3.632,0,0,0-.684-.062,1.234,1.234,0,0,0-.95.36,1.46,1.46,0,0,0-.335,1.032V-7.4h1.579v.978H28.752V0Zm3.9-3.767a4.369,4.369,0,0,1,.427-1.955,3.187,3.187,0,0,1,1.189-1.34,3.238,3.238,0,0,1,1.74-.472,3.119,3.119,0,0,1,2.444,1.046,4.024,4.024,0,0,1,.933,2.782v.089a4.407,4.407,0,0,1-.414,1.938A3.14,3.14,0,0,1,36.528-.342a3.275,3.275,0,0,1-1.767.479A3.111,3.111,0,0,1,32.324-.909a4,4,0,0,1-.933-2.769Zm1.271.15a3.164,3.164,0,0,0,.571,1.976A1.827,1.827,0,0,0,34.761-.9a1.816,1.816,0,0,0,1.531-.755,3.46,3.46,0,0,0,.567-2.116,3.159,3.159,0,0,0-.578-1.972,1.836,1.836,0,0,0-1.535-.755,1.816,1.816,0,0,0-1.511.745A3.434,3.434,0,0,0,32.662-3.616ZM40.906-7.4l.041.93a2.7,2.7,0,0,1,2.215-1.066q2.345,0,2.365,2.646V0H44.263V-4.895A1.7,1.7,0,0,0,43.9-6.077a1.466,1.466,0,0,0-1.118-.383,1.825,1.825,0,0,0-1.08.328,2.228,2.228,0,0,0-.725.861V0H39.71V-7.4ZM47.1-3.767a4.369,4.369,0,0,1,.427-1.955,3.187,3.187,0,0,1,1.189-1.34,3.238,3.238,0,0,1,1.74-.472A3.119,3.119,0,0,1,52.9-6.487a4.024,4.024,0,0,1,.933,2.782v.089a4.407,4.407,0,0,1-.414,1.938A3.14,3.14,0,0,1,52.237-.342,3.275,3.275,0,0,1,50.47.137,3.111,3.111,0,0,1,48.033-.909,4,4,0,0,1,47.1-3.678Zm1.271.15a3.164,3.164,0,0,0,.571,1.976A1.827,1.827,0,0,0,50.47-.9,1.816,1.816,0,0,0,52-1.651a3.46,3.46,0,0,0,.567-2.116,3.159,3.159,0,0,0-.578-1.972,1.836,1.836,0,0,0-1.535-.755,1.816,1.816,0,0,0-1.511.745A3.434,3.434,0,0,0,48.371-3.616Z" transform="translate(-5221.928 -12749.838)" fill="#12263f"/>
    <path id="Trazado_151932" data-name="Trazado 151932" d="M2.468-3.9V0H1.155V-9.953H4.826a3.688,3.688,0,0,1,2.56.834,2.827,2.827,0,0,1,.926,2.208,2.79,2.79,0,0,1-.906,2.232A3.853,3.853,0,0,1,4.813-3.9Zm0-1.073H4.826a2.358,2.358,0,0,0,1.613-.5A1.815,1.815,0,0,0,7-6.9a1.876,1.876,0,0,0-.561-1.424A2.209,2.209,0,0,0,4.9-8.88H2.468ZM14.28,0A2.657,2.657,0,0,1,14.1-.779,2.822,2.822,0,0,1,12,.137,2.611,2.611,0,0,1,10.2-.482a2,2,0,0,1-.7-1.569,2.091,2.091,0,0,1,.878-1.794,4.142,4.142,0,0,1,2.471-.639h1.23v-.581a1.42,1.42,0,0,0-.4-1.056,1.593,1.593,0,0,0-1.169-.393,1.844,1.844,0,0,0-1.135.342,1.007,1.007,0,0,0-.458.827H9.652a1.745,1.745,0,0,1,.393-1.07,2.683,2.683,0,0,1,1.066-.817,3.588,3.588,0,0,1,1.48-.3,2.924,2.924,0,0,1,2,.639,2.306,2.306,0,0,1,.752,1.76v3.4a4.162,4.162,0,0,0,.26,1.62V0Zm-2.1-.964a2.223,2.223,0,0,0,1.128-.308,1.861,1.861,0,0,0,.772-.8V-3.589h-.991q-2.324,0-2.324,1.36a1.151,1.151,0,0,0,.4.93A1.524,1.524,0,0,0,12.182-.964Zm1.169-9.522h1.531L13.05-8.477l-1.019,0ZM17.028-3.76a4.347,4.347,0,0,1,.8-2.751,2.558,2.558,0,0,1,2.119-1.022,2.544,2.544,0,0,1,2.112.957l.062-.82h1.155V-.178a3.009,3.009,0,0,1-.851,2.263,3.141,3.141,0,0,1-2.287.827,3.8,3.8,0,0,1-1.565-.342A2.7,2.7,0,0,1,17.4,1.634l.656-.759a2.473,2.473,0,0,0,1.989,1,1.938,1.938,0,0,0,1.439-.52A1.986,1.986,0,0,0,22-.1V-.738a2.6,2.6,0,0,1-2.071.875,2.527,2.527,0,0,1-2.1-1.046A4.571,4.571,0,0,1,17.028-3.76Zm1.271.144a3.316,3.316,0,0,0,.513,1.965,1.666,1.666,0,0,0,1.436.714A1.852,1.852,0,0,0,22-2.023V-5.4a1.874,1.874,0,0,0-1.743-1.06,1.681,1.681,0,0,0-1.442.718A3.612,3.612,0,0,0,18.3-3.616ZM26.558,0H25.293V-7.4h1.265ZM25.19-9.358a.755.755,0,0,1,.188-.52.706.706,0,0,1,.557-.212.717.717,0,0,1,.561.212.747.747,0,0,1,.191.52.722.722,0,0,1-.191.513.73.73,0,0,1-.561.205.718.718,0,0,1-.557-.205A.73.73,0,0,1,25.19-9.358ZM29.777-7.4l.041.93a2.7,2.7,0,0,1,2.215-1.066q2.345,0,2.365,2.646V0H33.134V-4.895a1.7,1.7,0,0,0-.366-1.183A1.466,1.466,0,0,0,31.65-6.46a1.825,1.825,0,0,0-1.08.328,2.228,2.228,0,0,0-.725.861V0H28.581V-7.4ZM40.872,0a2.657,2.657,0,0,1-.178-.779,2.822,2.822,0,0,1-2.105.916,2.611,2.611,0,0,1-1.794-.619,2,2,0,0,1-.7-1.569,2.091,2.091,0,0,1,.878-1.794,4.142,4.142,0,0,1,2.471-.639h1.23v-.581a1.42,1.42,0,0,0-.4-1.056,1.593,1.593,0,0,0-1.169-.393,1.844,1.844,0,0,0-1.135.342,1.007,1.007,0,0,0-.458.827H36.244a1.745,1.745,0,0,1,.393-1.07A2.683,2.683,0,0,1,37.7-7.232a3.588,3.588,0,0,1,1.48-.3,2.924,2.924,0,0,1,2,.639,2.306,2.306,0,0,1,.752,1.76v3.4a4.162,4.162,0,0,0,.26,1.62V0Zm-2.1-.964A2.223,2.223,0,0,0,39.9-1.271a1.861,1.861,0,0,0,.772-.8V-3.589h-.991q-2.324,0-2.324,1.36a1.151,1.151,0,0,0,.4.93A1.524,1.524,0,0,0,38.773-.964Zm15.162-.779L55.357-7.4h1.265L54.469,0H53.443l-1.8-5.605L49.9,0H48.87L46.724-7.4h1.258l1.456,5.537L51.16-7.4h1.019ZM60.977.137a3.232,3.232,0,0,1-2.447-.988,3.666,3.666,0,0,1-.943-2.642v-.232a4.438,4.438,0,0,1,.42-1.965,3.28,3.28,0,0,1,1.176-1.354,2.956,2.956,0,0,1,1.637-.489,2.77,2.77,0,0,1,2.242.95,4.114,4.114,0,0,1,.8,2.721v.526H58.851a2.629,2.629,0,0,0,.639,1.767A2.009,2.009,0,0,0,61.045-.9a2.2,2.2,0,0,0,1.135-.273,2.851,2.851,0,0,0,.813-.725l.772.6A3.106,3.106,0,0,1,60.977.137Zm-.157-6.631a1.687,1.687,0,0,0-1.285.557,2.708,2.708,0,0,0-.643,1.562H62.6v-.1a2.409,2.409,0,0,0-.52-1.494A1.588,1.588,0,0,0,60.819-6.494ZM71.586-3.616a4.4,4.4,0,0,1-.779,2.724A2.49,2.49,0,0,1,68.715.137a2.578,2.578,0,0,1-2.167-.991L66.486,0H65.324V-10.5h1.265v3.917a2.564,2.564,0,0,1,2.112-.95,2.505,2.505,0,0,1,2.116,1.019,4.53,4.53,0,0,1,.769,2.789ZM70.321-3.76a3.417,3.417,0,0,0-.5-2,1.652,1.652,0,0,0-1.436-.7,1.857,1.857,0,0,0-1.8,1.162v3.2A1.909,1.909,0,0,0,68.4-.937a1.643,1.643,0,0,0,1.415-.7A3.634,3.634,0,0,0,70.321-3.76Z" transform="translate(-5221.928 -12729.381)" fill="#12263f"/>
    <path id="Trazado_151933" data-name="Trazado 151933" d="M6.651-2.6H2.481L1.545,0H.191l3.8-9.953H5.141L8.948,0H7.6ZM2.878-3.678H6.262l-1.7-4.655ZM14.4-1.962a.931.931,0,0,0-.386-.8,3.718,3.718,0,0,0-1.347-.489,6.367,6.367,0,0,1-1.524-.492,2.169,2.169,0,0,1-.834-.684,1.635,1.635,0,0,1-.27-.943A1.919,1.919,0,0,1,10.8-6.9a3,3,0,0,1,1.965-.629,3.091,3.091,0,0,1,2.041.649,2.063,2.063,0,0,1,.783,1.661H14.321a1.142,1.142,0,0,0-.441-.9,1.652,1.652,0,0,0-1.111-.376,1.729,1.729,0,0,0-1.08.3.947.947,0,0,0-.39.786.767.767,0,0,0,.362.69,4.458,4.458,0,0,0,1.309.444,6.821,6.821,0,0,1,1.535.506,2.239,2.239,0,0,1,.872.708,1.74,1.74,0,0,1,.284,1.008,1.893,1.893,0,0,1-.793,1.589,3.326,3.326,0,0,1-2.058.6,3.725,3.725,0,0,1-1.572-.314,2.557,2.557,0,0,1-1.07-.878,2.117,2.117,0,0,1-.386-1.22h1.265a1.309,1.309,0,0,0,.509,1.008A1.976,1.976,0,0,0,12.811-.9a2.039,2.039,0,0,0,1.152-.291A.893.893,0,0,0,14.4-1.962Zm5.981,2.1a3.232,3.232,0,0,1-2.447-.988,3.666,3.666,0,0,1-.943-2.642v-.232a4.438,4.438,0,0,1,.42-1.965,3.28,3.28,0,0,1,1.176-1.354,2.956,2.956,0,0,1,1.637-.489,2.77,2.77,0,0,1,2.242.95,4.114,4.114,0,0,1,.8,2.721v.526H18.252a2.629,2.629,0,0,0,.639,1.767A2.009,2.009,0,0,0,20.446-.9a2.2,2.2,0,0,0,1.135-.273,2.851,2.851,0,0,0,.813-.725l.772.6A3.106,3.106,0,0,1,20.378.137Zm-.157-6.631a1.687,1.687,0,0,0-1.285.557,2.708,2.708,0,0,0-.643,1.562H22v-.1a2.409,2.409,0,0,0-.52-1.494A1.588,1.588,0,0,0,20.221-6.494Zm8.812,4.532a.931.931,0,0,0-.386-.8A3.718,3.718,0,0,0,27.3-3.247a6.367,6.367,0,0,1-1.524-.492,2.169,2.169,0,0,1-.834-.684,1.635,1.635,0,0,1-.27-.943A1.919,1.919,0,0,1,25.44-6.9a3,3,0,0,1,1.965-.629,3.091,3.091,0,0,1,2.041.649,2.063,2.063,0,0,1,.783,1.661H28.957a1.142,1.142,0,0,0-.441-.9,1.652,1.652,0,0,0-1.111-.376,1.729,1.729,0,0,0-1.08.3.947.947,0,0,0-.39.786.767.767,0,0,0,.362.69,4.458,4.458,0,0,0,1.309.444,6.821,6.821,0,0,1,1.535.506,2.239,2.239,0,0,1,.872.708A1.74,1.74,0,0,1,30.3-2.051,1.893,1.893,0,0,1,29.5-.461a3.326,3.326,0,0,1-2.058.6,3.725,3.725,0,0,1-1.572-.314,2.557,2.557,0,0,1-1.07-.878,2.117,2.117,0,0,1-.386-1.22h1.265a1.309,1.309,0,0,0,.509,1.008A1.976,1.976,0,0,0,27.446-.9,2.039,2.039,0,0,0,28.6-1.186.893.893,0,0,0,29.032-1.962Zm2.577-1.8a4.369,4.369,0,0,1,.427-1.955,3.187,3.187,0,0,1,1.189-1.34,3.238,3.238,0,0,1,1.74-.472A3.119,3.119,0,0,1,37.41-6.487a4.024,4.024,0,0,1,.933,2.782v.089a4.407,4.407,0,0,1-.414,1.938A3.14,3.14,0,0,1,36.747-.342a3.275,3.275,0,0,1-1.767.479A3.111,3.111,0,0,1,32.542-.909a4,4,0,0,1-.933-2.769Zm1.271.15a3.164,3.164,0,0,0,.571,1.976A1.827,1.827,0,0,0,34.979-.9a1.816,1.816,0,0,0,1.531-.755,3.46,3.46,0,0,0,.567-2.116A3.159,3.159,0,0,0,36.5-5.739a1.836,1.836,0,0,0-1.535-.755,1.816,1.816,0,0,0-1.511.745A3.434,3.434,0,0,0,32.881-3.616ZM43.5-6.262a3.79,3.79,0,0,0-.622-.048,1.667,1.667,0,0,0-1.688,1.06V0H39.929V-7.4h1.23l.021.854a1.969,1.969,0,0,1,1.764-.991,1.292,1.292,0,0,1,.561.1Zm4.32,2.5A4.333,4.333,0,0,1,48.631-6.5a2.551,2.551,0,0,1,2.112-1.036,2.565,2.565,0,0,1,2.058.889V-10.5h1.265V0H52.9l-.062-.793a2.575,2.575,0,0,1-2.112.93,2.526,2.526,0,0,1-2.1-1.053,4.382,4.382,0,0,1-.81-2.748Zm1.265.144a3.281,3.281,0,0,0,.52,1.969,1.68,1.68,0,0,0,1.436.711A1.845,1.845,0,0,0,52.8-2.017v-3.4A1.859,1.859,0,0,0,51.058-6.46a1.687,1.687,0,0,0-1.449.718A3.612,3.612,0,0,0,49.089-3.616ZM59.1.137a3.232,3.232,0,0,1-2.447-.988,3.666,3.666,0,0,1-.943-2.642v-.232a4.438,4.438,0,0,1,.42-1.965A3.28,3.28,0,0,1,57.3-7.044a2.956,2.956,0,0,1,1.637-.489,2.77,2.77,0,0,1,2.242.95,4.114,4.114,0,0,1,.8,2.721v.526H56.971a2.629,2.629,0,0,0,.639,1.767A2.009,2.009,0,0,0,59.165-.9,2.2,2.2,0,0,0,60.3-1.169a2.851,2.851,0,0,0,.813-.725l.772.6A3.106,3.106,0,0,1,59.1.137Zm-.157-6.631a1.687,1.687,0,0,0-1.285.557,2.708,2.708,0,0,0-.643,1.562h3.705v-.1a2.409,2.409,0,0,0-.52-1.494A1.588,1.588,0,0,0,58.939-6.494ZM69.351-1.716,71.183-7.4h1.292L69.822,0h-.964l-2.68-7.4h1.292ZM76.672.137a3.232,3.232,0,0,1-2.447-.988,3.666,3.666,0,0,1-.943-2.642v-.232a4.438,4.438,0,0,1,.42-1.965,3.28,3.28,0,0,1,1.176-1.354,2.956,2.956,0,0,1,1.637-.489,2.77,2.77,0,0,1,2.242.95,4.114,4.114,0,0,1,.8,2.721v.526H74.546a2.629,2.629,0,0,0,.639,1.767A2.009,2.009,0,0,0,76.74-.9a2.2,2.2,0,0,0,1.135-.273,2.851,2.851,0,0,0,.813-.725l.772.6A3.106,3.106,0,0,1,76.672.137Zm-.157-6.631a1.687,1.687,0,0,0-1.285.557,2.708,2.708,0,0,0-.643,1.562h3.705v-.1a2.409,2.409,0,0,0-.52-1.494A1.588,1.588,0,0,0,76.515-6.494Zm5.7-.9.041.93a2.7,2.7,0,0,1,2.215-1.066q2.345,0,2.365,2.646V0H85.572V-4.895a1.7,1.7,0,0,0-.366-1.183,1.466,1.466,0,0,0-1.118-.383,1.825,1.825,0,0,0-1.08.328,2.228,2.228,0,0,0-.725.861V0H81.02V-7.4ZM90.46-9.187V-7.4h1.381v.978H90.46v4.593a1.027,1.027,0,0,0,.185.667.777.777,0,0,0,.629.222,3.062,3.062,0,0,0,.6-.082V0A3.688,3.688,0,0,1,90.9.137a1.575,1.575,0,0,1-1.278-.513A2.2,2.2,0,0,1,89.2-1.832V-6.419H87.849V-7.4H89.2V-9.187ZM97.884,0a2.657,2.657,0,0,1-.178-.779A2.822,2.822,0,0,1,95.6.137a2.611,2.611,0,0,1-1.794-.619,2,2,0,0,1-.7-1.569,2.091,2.091,0,0,1,.878-1.794,4.141,4.141,0,0,1,2.471-.639h1.23v-.581a1.42,1.42,0,0,0-.4-1.056,1.593,1.593,0,0,0-1.169-.393,1.844,1.844,0,0,0-1.135.342,1.007,1.007,0,0,0-.458.827H93.256a1.745,1.745,0,0,1,.393-1.07,2.683,2.683,0,0,1,1.066-.817,3.588,3.588,0,0,1,1.48-.3,2.924,2.924,0,0,1,2,.639,2.306,2.306,0,0,1,.752,1.76v3.4a4.162,4.162,0,0,0,.26,1.62V0Zm-2.1-.964a2.223,2.223,0,0,0,1.128-.308,1.861,1.861,0,0,0,.772-.8V-3.589h-.991q-2.324,0-2.324,1.36a1.151,1.151,0,0,0,.4.93A1.524,1.524,0,0,0,95.785-.964Z" transform="translate(-5221.928 -12692.081)" fill="#12263f"/>
    <path id="Trazado_151934" data-name="Trazado 151934" d="M0,0H505.283V21.189H0Z" transform="translate(-5226.063 -12707.051)" fill="none" stroke="#12263f" stroke-width="1"/>
    <path id="Trazado_151935" data-name="Trazado 151935" d="M0,0H505.283V107.377H0Z" transform="translate(-5226.063 -12830.02)" fill="none" stroke="#12263f" stroke-width="1"/>
    <path id="Trazado_151936" data-name="Trazado 151936" d="M0,0H505.283" transform="translate(-5226.063 -12810.312)" fill="none" stroke="#12263f" stroke-width="1"/>
    <path id="Trazado_151937" data-name="Trazado 151937" d="M0,0H505.283" transform="translate(-5226.063 -12786.559)" fill="none" stroke="#12263f" stroke-width="1"/>
    <path id="Trazado_151938" data-name="Trazado 151938" d="M0,0H505.283" transform="translate(-5226.063 -12763.886)" fill="none" stroke="#12263f" stroke-width="1"/>
    <path id="Trazado_151939" data-name="Trazado 151939" d="M0,0H505.283" transform="translate(-5226.063 -12744.451)" fill="none" stroke="#12263f" stroke-width="1"/>
    <g id="Grupo_53851" data-name="Grupo 53851" transform="translate(-5221.928 -12632.181)">
      <text id="Nombre" transform="translate(0 13)" fill="#12263f" font-size="14" font-family="Roboto-Regular, Roboto" style="isolation: isolate"><tspan x="0" y="0">Nombre</tspan></text>
      <text id="Nombre_de_la_empresa" data-name="Nombre de la empresa" transform="translate(0 31.893)" fill="#12263f" font-size="14" font-family="Roboto-Regular, Roboto" style="isolation: isolate"><tspan x="0" y="0">Nombre de la empresa</tspan></text>
      <text id="Direccin" transform="translate(0 50.788)" fill="#12263f" font-size="14" font-family="Roboto-Regular, Roboto" style="isolation: isolate"><tspan x="0" y="0">Direccin</tspan></text>
      <text id="Ciudad" transform="translate(0 69.683)" fill="#12263f" font-size="14" font-family="Roboto-Regular, Roboto" style="isolation: isolate"><tspan x="0" y="0">Ciudad</tspan></text>
      <text id="Telfono" transform="translate(0 88.577)" fill="#12263f" font-size="14" font-family="Roboto-Regular, Roboto" style="isolation: isolate"><tspan x="0" y="0">Telfono</tspan></text>
    </g>
    <path id="Trazado_151940" data-name="Trazado 151940" d="M0,0H505.283V94.862H0Z" transform="translate(-5226.063 -12632.112)" fill="none" stroke="#12263f" stroke-width="1"/>
    <path id="Trazado_151941" data-name="Trazado 151941" d="M0,0H505.283" transform="translate(-5226.063 -12613.728)" fill="none" stroke="#12263f" stroke-width="1"/>
    <path id="Trazado_151942" data-name="Trazado 151942" d="M0,0H505.283" transform="translate(-5226.063 -12594.293)" fill="none" stroke="#12263f" stroke-width="1"/>
    <path id="Trazado_151943" data-name="Trazado 151943" d="M0,0H505.283" transform="translate(-5226.063 -12575.399)" fill="none" stroke="#12263f" stroke-width="1"/>
    <path id="Trazado_151944" data-name="Trazado 151944" d="M0,0H505.283" transform="translate(-5226.063 -12557.774)" fill="none" stroke="#12263f" stroke-width="1"/>
  </g>
</svg>
